lilgrotesk_bold.sfdir

StartChar: exclam
Encoding: 33 33 161
Width: 403
Flags: MW
HStem: -31 187<160 213.5>
VStem: 90 193<37 88.5> 107.5 159
LayerCount: 2
Fore
SplineSet
276 720 m 1xa0
 257 228 l 1
 117 228 l 1
 98 720 l 1
 276 720 l 1xa0
187 -31 m 0xc0
 133 -31 90 11 90 63 c 0
 90 114 133 156 187 156 c 0
 240 156 283 114 283 63 c 0
 283 11 240 -31 187 -31 c 0xc0
EndSplineSet
EndChar

StartChar: quotedbl
Encoding: 34 34 167
Width: 465
Flags: MW
HStem: 549 218<77 177 77 77 300 300 300 400>
VStem: 69 116 292 115.5
LayerCount: 2
Fore
SplineSet
177 549 m 1
 77 549 l 1
 61 767 l 1
 193 767 l 1
 177 549 l 1
400 549 m 1
 300 549 l 1
 284 767 l 1
 415 767 l 1
 400 549 l 1
EndSplineSet
EndChar

StartChar: numbersign
Encoding: 35 35 163
Width: 708
Flags: MW
HStem: 163 132<12 101 12 137 285 352 12 249 535 624> 431 132<84 174 84 210 84 321 357 425 609 696>
VStem: 12 684<163 563 295 563>
LayerCount: 2
Fore
SplineSet
624 295 m 1
 624 163 l 1
 499 163 l 1
 455 3 l 1
 308 3 l 1
 352 163 l 1
 249 163 l 1
 205 3 l 1
 58 3 l 1
 101 163 l 1
 12 163 l 1
 12 295 l 1
 137 295 l 1
 174 431 l 1
 84 431 l 1
 84 563 l 1
 210 563 l 1
 257 738 l 1
 404 738 l 1
 357 563 l 1
 461 563 l 1
 511 744 l 1
 658 744 l 1
 609 563 l 1
 696 563 l 1
 696 431 l 1
 572 431 l 1
 535 295 l 1
 624 295 l 1
285 295 m 1
 388 295 l 1
 425 431 l 1
 321 431 l 1
 285 295 l 1
EndSplineSet
EndChar

StartChar: dollar
Encoding: 36 36 193
Width: 600
Flags: MW
HStem: -95 199<258.5 328 258.5 375 232 328> 599 200
VStem: 61 142 232 143<-95 -21 -21 -21 726 799> 413 143<161.5 224>
LayerCount: 2
Fore
SplineSet
506 625 m 1
 394 543 l 1
 394 543 354 595 289 599 c 0
 236 602 199 566 203 516 c 0xf8
 206 474 254 451 316 428 c 1
 339 420 l 1
 388 401 556 357 556 191 c 0
 556 68 469 4 375 -18 c 1
 375 -95 l 1
 232 -95 l 1
 232 -21 l 1xd8
 131 0 58 69 35 108 c 1
 158 176 l 1
 176 145 223 104 294 104 c 0
 362 104 413 132 413 191 c 0
 413 257 341 276 289 295 c 1
 266 304 l 1
 194 331 71 383 61 505 c 1xf8
 51 614 125 704 232 726 c 1
 232 799 l 1
 375 799 l 1
 375 715 l 1
 460 686 506 625 506 625 c 1
EndSplineSet
EndChar

StartChar: percent
Encoding: 37 37 211
Width: 805
Flags: MW
HStem: -3 95<593 603 593 640.5> 293 96<591.5 604.5> 318 96<187.5 197 187.5 234.5> 615 95<186 198.5>
VStem: 41 130<469 562.5 469 578> 214 130<469 562.5> 447 130<147 240.5 147 256> 620 130<147 240.5>
LayerCount: 2
Fore
SplineSet
192 318 m 0xbf
 107 318 41 392 41 516 c 0
 41 640 108 710 192 710 c 0
 277 710 344 640 344 516 c 0
 344 392 277 318 192 318 c 0xbf
717 710 m 1
 243 0 l 1
 75 0 l 1
 550 710 l 1
 717 710 l 1
192 414 m 0
 202 414 214 422 214 516 c 0
 214 609 205 615 192 615 c 0
 180 615 171 609 171 516 c 0
 171 422 183 414 192 414 c 0
598 -3 m 0
 513 -3 447 70 447 194 c 0
 447 318 514 389 598 389 c 0xdf
 682 389 750 318 750 194 c 0
 750 70 683 -3 598 -3 c 0
598 92 m 0
 608 92 620 100 620 194 c 0
 620 287 611 293 598 293 c 0xdf
 585 293 577 287 577 194 c 0
 577 100 588 92 598 92 c 0
EndSplineSet
EndChar

StartChar: ampersand
Encoding: 38 38 218
Width: 740
Flags: MW
HStem: -19 132<219.5 286 219.5 308.5> 591 132<323.5 343>
VStem: 13.73 142.05 139.1 144.9 365 143.74 436 148.41
LayerCount: 2
Fore
SplineSet
543 0 m 1xe4
 480 64 l 1
 430 15 359 -19 258 -19 c 0xe4
 94 -19 -14 111 20 262 c 0
 36 336 87 386 158 424 c 1
 141 463 133 508 144 566 c 0
 162 670 250 723 335 723 c 0xd8
 425 723 533 646 504 519 c 1
 489 447 433 404 368 376 c 1
 436 306 l 1
 436 327 433 348 427 367 c 1
 582 367 l 1
 588 325 584 253 557 182 c 1
 736 0 l 1
 543 0 l 1xe4
284 543 m 0xd8
 280 520 284 498 291 479 c 1
 342 498 359 519 365 547 c 0
 371 572 351 591 335 591 c 0
 312 591 290 575 284 543 c 0xd8
258 113 m 0xe4
 314 113 355 132 383 162 c 1
 322 225 260 288 232 319 c 1
 190 295 167 268 159 234 c 0
 144 165 181 113 258 113 c 0xe4
EndSplineSet
EndChar

StartChar: quotesingle
Encoding: 39 39 10
Width: 202
Flags: MW
HStem: 549 218<26 127 26 26>
VStem: 18.5 116
LayerCount: 2
Fore
SplineSet
142 767 m 1
 127 549 l 1
 26 549 l 1
 11 767 l 1
 142 767 l 1
EndSplineSet
EndChar

StartChar: parenleft
Encoding: 40 40 175
Width: 324
Flags: MW
HStem: -98 831<170 171>
VStem: 50 143<231.5 415.5 231.5 433.5>
LayerCount: 2
Fore
SplineSet
294 -32 m 1
 170 -98 l 1
 170 -98 50 106 50 324 c 0
 50 543 171 733 171 733 c 1
 292 663 l 1
 292 663 193 507 193 324 c 0
 193 139 294 -32 294 -32 c 1
EndSplineSet
EndChar

StartChar: parenright
Encoding: 41 41 176
Width: 324
Flags: MW
HStem: -98 831<172 174>
VStem: 50 244
LayerCount: 2
Fore
SplineSet
50 -32 m 1
 174 -98 l 1
 174 -98 294 106 294 324 c 0
 294 543 172 733 172 733 c 1
 51 663 l 1
 51 663 151 507 151 324 c 0
 151 139 50 -32 50 -32 c 1
EndSplineSet
EndChar

StartChar: asterisk
Encoding: 42 42 156
Width: 600
Flags: MW
HStem: 382 431<174 174>
VStem: 169 143<690 813 689 813>
LayerCount: 2
Fore
SplineSet
241 478 m 1
 174 382 l 1
 57 458 l 1
 130 562 l 1
 11 600 l 1
 54 726 l 1
 169 690 l 1
 169 813 l 1
 312 813 l 1
 312 689 l 1
 427 726 l 1
 470 600 l 1
 352 562 l 1
 426 460 l 1
 310 383 l 1
 241 478 l 1
EndSplineSet
EndChar

StartChar: plus
Encoding: 43 43 213
Width: 600
Flags: MW
HStem: 204 133<9 219 9 219 362 572>
VStem: 219 143<-9 204 337 550>
LayerCount: 2
Fore
SplineSet
362 -9 m 1
 219 -9 l 1
 219 204 l 1
 9 204 l 1
 9 337 l 1
 219 337 l 1
 219 550 l 1
 362 550 l 1
 362 337 l 1
 572 337 l 1
 572 204 l 1
 362 204 l 1
 362 -9 l 1
EndSplineSet
EndChar

StartChar: comma
Encoding: 44 44 11
Width: 265
Flags: MW
HStem: -165 281<138 138>
VStem: 90 123
LayerCount: 2
Fore
SplineSet
86 116 m 1
 213 116 l 1
 213 -17 l 1
 138 -165 l 1
 36 -119 l 1
 94 12 l 1
 86 116 l 1
EndSplineSet
EndChar

StartChar: hyphen
Encoding: 45 45 12
Width: 499
Flags: MW
HStem: 220 130<68 432 68 432>
VStem: 68 364<220 350 220 350>
LayerCount: 2
Fore
SplineSet
68 350 m 1
 432 350 l 1
 432 220 l 1
 68 220 l 1
 68 350 l 1
EndSplineSet
EndChar

StartChar: period
Encoding: 46 46 13
Width: 379
Flags: MW
HStem: -31 187<160 213.5>
VStem: 90 193<37 88.5>
LayerCount: 2
Fore
SplineSet
187 -31 m 0
 133 -31 90 11 90 63 c 0
 90 114 133 156 187 156 c 0
 240 156 283 114 283 63 c 0
 283 11 240 -31 187 -31 c 0
EndSplineSet
EndChar

StartChar: slash
Encoding: 47 47 169
Width: 600
Flags: MW
HStem: -126 864<236 374>
VStem: 125 360
LayerCount: 2
Fore
SplineSet
485 702 m 1
 236 -126 l 1
 125 -92 l 1
 374 738 l 1
 485 702 l 1
EndSplineSet
EndChar

StartChar: zero
Encoding: 48 48 138
Width: 609
Flags: MW
HStem: -5 131<277 332.5 277 377> 572 132<276 333.5>
VStem: 46 143<271.5 432 271.5 468.5> 420 143<271.5 432>
LayerCount: 2
Fore
SplineSet
305 -5 m 0
 160 -5 46 120 46 352 c 0
 46 585 161 704 305 704 c 0
 449 704 563 585 563 352 c 0
 563 120 449 -5 305 -5 c 0
305 126 m 0
 360 126 420 191 420 352 c 0
 420 512 362 572 305 572 c 0
 247 572 189 512 189 352 c 0
 189 191 249 126 305 126 c 0
EndSplineSet
EndChar

StartChar: one
Encoding: 49 49 139
Width: 480
Flags: MW
HStem: 0 133<24 167 24 167 309 455>
VStem: 167 142<133 536 536 536>
LayerCount: 2
Fore
SplineSet
24 0 m 1
 24 133 l 1
 167 133 l 1
 167 536 l 1
 31 466 l 1
 31 628 l 1
 205 700 l 1
 309 700 l 1
 309 133 l 1
 455 133 l 1
 455 0 l 1
 24 0 l 1
EndSplineSet
EndChar

StartChar: two
Encoding: 50 50 140
Width: 525
Flags: MW
HStem: 0 138<20 20 220 495> 569 137<226.5 287>
VStem: 337.33 142.46
LayerCount: 2
Fore
SplineSet
20 0 m 1
 20 138 l 1
 107 228 261 359 318 438 c 0
 364 502 323 569 251 569 c 0
 202 569 166 528 165 470 c 1
 25 515 l 1
 40 621 135 706 251 706 c 0
 432 706 550 520 434 358 c 0
 391 298 300 212 220 138 c 1
 495 138 l 1
 495 0 l 1
 20 0 l 1
EndSplineSet
EndChar

StartChar: three
Encoding: 51 51 141
Width: 502
Flags: MW
HStem: -3 133<214.5 266.5 214.5 308.5> 323 116<200 211 200 214> 571 133<209.5 253>
VStem: 52 125<494 516> 294 143<491.5 528> 331 142<195.5 250>
LayerCount: 2
Fore
SplineSet
177 494 m 1xf4
 52 516 l 1
 58 620 123 704 238 704 c 0
 349 704 437 615 437 510 c 0xf8
 437 466 428 424 380 391 c 1
 450 349 473 289 473 223 c 0
 473 102 379 -3 238 -3 c 0
 128 -3 45 75 30 145 c 1
 160 201 l 1
 167 160 191 130 238 130 c 0
 295 130 331 168 331 223 c 0xf4
 331 277 295 323 211 323 c 2
 200 323 l 1
 200 439 l 1
 214 439 l 2
 275 439 294 473 294 510 c 0xf8
 294 546 268 571 238 571 c 0
 181 571 179 511 177 494 c 1xf4
EndSplineSet
EndChar

StartChar: four
Encoding: 52 52 142
Width: 625
Flags: MW
HStem: 135 141<220 350 220 350 493 563>
VStem: 350 143<0 135 0 135 276 471 471 471>
LayerCount: 2
Fore
SplineSet
493 0 m 1
 350 0 l 1
 350 135 l 1
 43 135 l 1
 43 251 l 1
 356 700 l 1
 493 700 l 1
 493 276 l 1
 563 276 l 1
 563 135 l 1
 493 135 l 1
 493 0 l 1
220 276 m 1
 350 276 l 1
 350 471 l 1
 220 276 l 1
EndSplineSet
EndChar

StartChar: five
Encoding: 53 53 143
Width: 538
Flags: MW
HStem: -3.46001 134.46 339.38 128.62 568 132<240 240 240 464>
VStem: 13 472.71 342 143.71
LayerCount: 2
Fore
SplineSet
240 568 m 1x70
 207 467 l 1
 231 471 255 472 281 468 c 0
 412 447 504 324 483 195 c 0
 462 67 348 -23 204 0 c 1
 106 17 35 81 13 148 c 1
 135 214 l 1
 158 161 176 139 227 131 c 0
 288 121 332 155 342 216 c 0
 351 273 309 329 259 337 c 0xe8
 218 343 186 341 107 291 c 1
 38 407 l 1
 128 700 l 1
 464 700 l 1
 464 568 l 1
 240 568 l 1x70
EndSplineSet
EndChar

StartChar: six
Encoding: 54 54 144
Width: 505
Flags: MW
HStem: -3.92999 137.93 303.8 135.2
VStem: 30.26 142.15 336.89 142.62
LayerCount: 2
Fore
SplineSet
437 700 m 1
 286 439 l 1
 314 436 341 427 367 412 c 0
 475 350 511 215 450 108 c 0
 396 14 280 -26 180 8 c 0
 162 15 145 23 130 33 c 0
 124 38 117 42 111 47 c 0
 31 113 7 225 54 320 c 1
 59 329 l 1
 61 332 l 1
 274 700 l 1
 437 700 l 1
214 145 m 2
 221 141 l 2
 230 137 240 135 252 134 c 0
 281 133 310 148 326 177 c 0
 349 217 335 270 296 293 c 0
 255 316 207 302 183 261 c 0
 160 220 175 167 214 145 c 2
EndSplineSet
EndChar

StartChar: seven
Encoding: 55 55 145
Width: 600
Flags: MW
HStem: 563 137<76 346 76 591>
VStem: 14 577
LayerCount: 2
Fore
SplineSet
275 442 m 1
 346 563 l 1
 76 563 l 1
 76 700 l 1
 591 700 l 1
 178 0 l 1
 14 0 l 1
 275 442 l 1
EndSplineSet
EndChar

StartChar: eight
Encoding: 56 56 146
Width: 516
Flags: MW
HStem: -3.25999 132.78 571.31 132.87
VStem: 22.78 142.46 48.41 142.7 324.86 142.84 350.43 142.2
LayerCount: 2
Fore
SplineSet
419 369 m 1xe4
 497 301 517 194 460 103 c 0
 397 2 253 -33 143 24 c 0
 27 85 -11 215 55 322 c 0xe4
 66 339 81 355 98 369 c 1
 42 432 31 523 76 601 c 0
 132 698 263 734 362 677 c 0
 464 618 497 498 440 398 c 0xd8
 434 388 427 378 419 369 c 1xe4
200 535 m 0xd8
 181 502 193 456 225 437 c 0
 237 431 242 430 260 428 c 1
 285 430 303 441 316 464 c 0
 335 498 323 544 291 562 c 0
 258 581 221 571 200 535 c 0xd8
339 173 m 0xe4
 363 211 349 261 306 283 c 0
 290 292 280 294 258 296 c 1
 220 293 194 280 176 252 c 0
 153 214 167 163 209 141 c 0
 256 117 313 131 339 173 c 0xe4
EndSplineSet
EndChar

StartChar: nine
Encoding: 57 57 147
Width: 471
Flags: MW
HStem: 277 134.77 566 138.57
VStem: 24.25 142.83 315.97 142.55
LayerCount: 2
Fore
SplineSet
433 388 m 1
 430 382 l 2
 429 380 427 378 426 375 c 2
 208 0 l 1
 45 0 l 1
 205 277 l 1
 180 281 156 290 133 303 c 0
 28 363 -6 492 53 596 c 0
 104 687 215 726 312 693 c 1
 442 646 493 505 435 391 c 1
 433 388 l 1
279 556 m 1
 277 557 l 2
 266 563 254 566 240 566 c 0
 215 566 191 552 177 528 c 0
 156 491 169 442 204 422 c 0
 237 403 277 411 300 441 c 1
 310 460 l 1
 325 495 311 536 279 556 c 1
EndSplineSet
EndChar

StartChar: colon
Encoding: 58 58 159
Width: 600
Flags: MW
HStem: -31 187<160 213.5> 360 188<160 213.5>
VStem: 90 193<37 88.5 428.5 479.5>
LayerCount: 2
Fore
SplineSet
187 360 m 0
 133 360 90 403 90 454 c 0
 90 505 133 548 187 548 c 0
 240 548 283 505 283 454 c 0
 283 403 240 360 187 360 c 0
187 -31 m 0
 133 -31 90 11 90 63 c 0
 90 114 133 156 187 156 c 0
 240 156 283 114 283 63 c 0
 283 11 240 -31 187 -31 c 0
EndSplineSet
EndChar

StartChar: semicolon
Encoding: 59 59 168
Width: 664
Flags: MW
HStem: 360 188<118 172>
VStem: 49 192<428.5 479.5> 89 123
LayerCount: 2
Fore
SplineSet
145 360 m 0xc0
 91 360 49 403 49 454 c 0
 49 505 91 548 145 548 c 0
 199 548 241 505 241 454 c 0
 241 403 199 360 145 360 c 0xc0
212 116 m 1xa0
 212 -17 l 1
 136 -165 l 1
 35 -119 l 1
 93 12 l 1
 85 116 l 1
 212 116 l 1xa0
EndSplineSet
EndChar

StartChar: less
Encoding: 60 60 204
Width: 651
Flags: MW
HStem: 28 564<542 543>
VStem: 128 475<240 460 240 460>
LayerCount: 2
Fore
SplineSet
603 460 m 1
 543 592 l 1
 128 379 l 1
 128 240 l 1
 542 28 l 1
 602 160 l 1
 288 310 l 1
 603 460 l 1
EndSplineSet
EndChar

StartChar: equal
Encoding: 61 61 199
Width: 600
Flags: MW
HStem: 108 132<71 537 71 537> 340 132<71 537 71 537>
VStem: 71 466<108 240 108 240 340 472 108 472>
LayerCount: 2
Fore
SplineSet
71 472 m 1
 537 472 l 1
 537 340 l 1
 71 340 l 1
 71 472 l 1
71 240 m 1
 537 240 l 1
 537 108 l 1
 71 108 l 1
 71 240 l 1
EndSplineSet
EndChar

StartChar: greater
Encoding: 62 62 200
Width: 651
Flags: MW
HStem: 28 564<108 109>
VStem: 48 474<240 460>
LayerCount: 2
Fore
SplineSet
363 310 m 1
 48 460 l 1
 108 592 l 1
 522 379 l 1
 522 240 l 1
 109 28 l 1
 49 160 l 1
 363 310 l 1
EndSplineSet
EndChar

StartChar: question
Encoding: 63 63 165
Width: 540
Flags: MW
HStem: -41 187<170 223.5> 578 132
VStem: 100 193<27 78.5> 114 148 277 142
LayerCount: 2
Fore
SplineSet
122 219 m 1xd0
 106 418 l 1
 196 445 272 468 277 525 c 0
 280 559 259 580 222 578 c 0
 185 577 167 541 167 541 c 1
 48 608 l 1
 48 608 87 704 214 710 c 1
 335 717 429 627 419 514 c 0xd8
 411 414 333 358 262 327 c 1
 262 219 l 1
 122 219 l 1xd0
197 -41 m 0xe0
 143 -41 100 1 100 53 c 0
 100 104 143 146 197 146 c 0
 250 146 293 104 293 53 c 0
 293 1 250 -41 197 -41 c 0xe0
EndSplineSet
EndChar

StartChar: at
Encoding: 64 64 220
Width: 1110
Flags: MW
HStem: -241 132<473.5 603.5 473.5 612> -36.2 133.2 -21 126<522.5 561> 204 99<555.5 582.5 514 596> 376 117<567.5 609.5> 596 132<473.5 664>
VStem: 80 143<145.5 342 145.5 376.5> 365 123<135 166.5 135 200> 652 137<292 301 301 303> 898 143<206.5 353>
LayerCount: 2
Fore
SplineSet
751 -57 m 1xdfc0
 812 -177 l 1
 744 -215 655 -241 569 -241 c 0
 298 -241 80 -22 80 244 c 0
 80 509 298 728 569 728 c 0
 841 728 1041 519 1041 254 c 0
 1041 106 971 -19 849 -34 c 0xdfc0
 772 -44 713 -21 680 32 c 1
 623 -15 581 -21 541 -21 c 0xbfc0
 419 -21 365 66 365 137 c 0
 365 263 461 303 567 303 c 0
 598 303 630 298 652 292 c 1
 652 303 l 2
 652 345 629 376 590 376 c 0
 545 376 516 349 487 307 c 1
 394 391 l 1
 431 443 493 493 590 493 c 0
 699 493 789 418 789 303 c 2
 789 301 l 1
 789 159 l 2
 789 99 796 92 831 97 c 0
 861 101 898 159 898 254 c 0
 898 452 759 596 569 596 c 0
 378 596 223 440 223 244 c 0
 223 47 378 -109 569 -109 c 0
 638 -109 693 -92 751 -57 c 1xdfc0
541 105 m 0xbfc0
 605 105 644 142 648 196 c 1
 630 201 606 204 586 204 c 0
 525 204 488 188 488 145 c 0
 488 125 504 105 541 105 c 0xbfc0
EndSplineSet
EndChar

StartChar: A
Encoding: 65 65 14
Width: 703
Flags: MW
HStem: 199 132<299 413 299 464 247 413>
VStem: 17 677<0 0>
LayerCount: 2
Fore
SplineSet
169 0 m 1
 17 0 l 1
 291 700 l 1
 420 700 l 1
 694 0 l 1
 542 0 l 1
 464 199 l 1
 247 199 l 1
 169 0 l 1
299 331 m 1
 413 331 l 1
 356 477 l 1
 299 331 l 1
EndSplineSet
EndChar

StartChar: B
Encoding: 66 66 15
Width: 592
Flags: MW
HStem: 0 132<214 311 214 340> 332 133<214 317 317 328 214 342 214 317> 568 132<214 316 214 214>
VStem: 71 143<132 132 132 332 465 568> 359 143<501 531.5> 437 143<198 260.5>
LayerCount: 2
Fore
SplineSet
71 700 m 1xf4
 316 700 l 2
 419 700 502 617 502 516 c 0xf8
 502 483 493 451 477 424 c 1
 539 381 580 311 580 232 c 0
 580 105 477 0 340 0 c 2
 71 0 l 1
 71 700 l 1xf4
214 465 m 1
 317 465 l 2
 339 465 359 486 359 516 c 0
 359 547 338 568 316 568 c 2
 214 568 l 1
 214 465 l 1
214 132 m 1
 311 132 l 1
 389 134 437 164 437 232 c 0
 437 289 394 332 342 332 c 2xf4
 214 332 l 1
 214 132 l 1
EndSplineSet
EndChar

StartChar: D
Encoding: 68 68 17
Width: 677
Flags: MW
HStem: 0 132<245 269 245 269> 568 132<245 264 245 245>
VStem: 102 143<132 132 132 568> 480 143<281.5 420>
LayerCount: 2
Fore
SplineSet
102 700 m 1
 264 700 l 2
 514 700 623 548 623 350 c 0
 623 153 506 0 269 0 c 2
 102 0 l 1
 102 700 l 1
245 132 m 1
 269 132 l 2
 415 132 480 213 480 350 c 0
 480 490 420 568 264 568 c 2
 245 568 l 1
 245 132 l 1
EndSplineSet
EndChar

StartChar: E
Encoding: 69 69 18
Width: 600
Flags: MW
HStem: 0 132<213 555 213 555> 287 132<213 488 213 488> 568 132<213 554 213 213>
VStem: 70 143<132 287 419 568>
LayerCount: 2
Fore
SplineSet
70 0 m 1
 70 700 l 1
 554 700 l 1
 554 568 l 1
 213 568 l 1
 213 419 l 1
 488 419 l 1
 488 287 l 1
 213 287 l 1
 213 132 l 1
 555 132 l 1
 555 0 l 1
 70 0 l 1
EndSplineSet
EndChar

StartChar: F
Encoding: 70 70 19
Width: 563
Flags: MW
HStem: 288 132<211 468 211 468> 569 132<211 535 211 211>
VStem: 68 143<0 288 0 420 420 569>
LayerCount: 2
Fore
SplineSet
468 420 m 1
 468 288 l 1
 211 288 l 1
 211 0 l 1
 68 0 l 1
 68 701 l 1
 535 701 l 1
 535 569 l 1
 211 569 l 1
 211 420 l 1
 468 420 l 1
EndSplineSet
EndChar

StartChar: G
Encoding: 71 71 20
Width: 700
Flags: MW
HStem: -2 132<313.5 390 313.5 415.5> 256 132<331 500 331 642> 569 132<313.5 395>
VStem: 28 143<288 412 288 446.5> 500 142<192 256 256 256>
LayerCount: 2
Fore
SplineSet
642 388 m 1
 642 150 l 1
 578 51 466 -2 365 -2 c 0
 178 -2 28 157 28 350 c 0
 28 543 178 701 365 701 c 0
 466 701 566 649 620 579 c 1
 520 485 l 1
 474 542 425 569 365 569 c 0
 262 569 171 474 171 350 c 0
 171 226 262 130 365 130 c 0
 415 130 460 148 500 192 c 1
 500 256 l 1
 331 256 l 1
 331 388 l 1
 642 388 l 1
EndSplineSet
EndChar

StartChar: H
Encoding: 72 72 21
Width: 721
Flags: MW
HStem: 287 132<218 503 218 503>
VStem: 75 143<0 287 0 419 419 700> 503 143<0 287 287 287 419 700 0 700>
LayerCount: 2
Fore
SplineSet
503 0 m 1
 503 287 l 1
 218 287 l 1
 218 0 l 1
 75 0 l 1
 75 700 l 1
 218 700 l 1
 218 419 l 1
 503 419 l 1
 503 700 l 1
 646 700 l 1
 646 0 l 1
 503 0 l 1
EndSplineSet
EndChar

StartChar: I
Encoding: 73 73 22
Width: 301
Flags: MW
HStem: 0 700<79 222 79 222>
VStem: 79 143<0 700 0 700>
LayerCount: 2
Fore
SplineSet
79 0 m 1
 79 700 l 1
 222 700 l 1
 222 0 l 1
 79 0 l 1
EndSplineSet
EndChar

StartChar: J
Encoding: 74 74 23
Width: 523
Flags: MW
HStem: -2 132<224 259 224 300>
VStem: 42.48 142.31 301 144<208 701 197 701>
LayerCount: 2
Fore
SplineSet
445 701 m 1
 445 197 l 1
 446 88 356 -2 244 -2 c 0
 119 -2 22 109 46 235 c 1
 193 235 l 1
 168 178 204 130 244 130 c 0
 274 130 302 149 301 208 c 1
 301 701 l 1
 445 701 l 1
EndSplineSet
EndChar

StartChar: K
Encoding: 75 75 24
Width: 670
Flags: MW
HStem: 0 702<76 219 76 219 76 511 76 688>
VStem: 76 143<0 286 473 702>
LayerCount: 2
Fore
SplineSet
219 0 m 1
 76 0 l 1
 76 702 l 1
 219 702 l 1
 219 473 l 1
 461 700 l 1
 662 700 l 1
 363 420 l 1
 688 0 l 1
 511 0 l 1
 261 325 l 1
 219 286 l 1
 219 0 l 1
EndSplineSet
EndChar

StartChar: L
Encoding: 76 76 25
Width: 505
Flags: MW
HStem: 0 132<226 473 226 473>
VStem: 83 143<132 700 132 700 132 700>
LayerCount: 2
Fore
SplineSet
83 700 m 1
 226 700 l 1
 226 132 l 1
 473 132 l 1
 473 0 l 1
 83 0 l 1
 83 700 l 1
EndSplineSet
EndChar

StartChar: M
Encoding: 77 77 26
Width: 861
Flags: MW
HStem: -4 704<83 430>
VStem: 83 143<0 381 0 700> 635 143<0 380 380 380>
LayerCount: 2
Fore
SplineSet
778 700 m 1
 778 0 l 1
 635 0 l 1
 635 380 l 1
 430 -4 l 1
 226 381 l 1
 226 0 l 1
 83 0 l 1
 83 700 l 1
 215 700 l 1
 430 295 l 1
 646 700 l 1
 778 700 l 1
EndSplineSet
EndChar

StartChar: N
Encoding: 78 78 27
Width: 725
Flags: MW
HStem: 0 700<75 207 75 218 75 207 519 519 519 649>
VStem: 75 143<0 437 0 700> 506 143<265 700 0 700>
LayerCount: 2
Fore
SplineSet
218 437 m 1
 218 0 l 1
 75 0 l 1
 75 700 l 1
 207 700 l 1
 506 265 l 1
 506 700 l 1
 649 700 l 1
 649 0 l 1
 519 0 l 1
 218 437 l 1
EndSplineSet
EndChar

StartChar: O
Encoding: 79 79 28
Width: 798
Flags: MW
HStem: 0 132<341.5 450 341.5 484> 570 132<341 456>
VStem: 45 143<290 411.5 290 446.5> 610 143<282.5 412.5>
LayerCount: 2
Fore
SplineSet
399 702 m 0
 595 702 753 545 753 351 c 0
 753 130 569 0 399 0 c 0
 203 0 45 158 45 351 c 0
 45 542 199 702 399 702 c 0
399 570 m 0
 283 570 188 472 188 351 c 0
 188 229 284 132 399 132 c 0
 501 132 610 214 610 351 c 0
 610 474 513 570 399 570 c 0
EndSplineSet
EndChar

StartChar: P
Encoding: 80 80 29
Width: 585
Flags: MW
HStem: 288 132<218 344 218 344> 574 132<218 344 218 218>
VStem: 75 143<0 288 420 574> 414 143<474.5 508.5>
LayerCount: 2
Fore
SplineSet
75 706 m 1
 344 706 l 2
 401 706 460 680 495 645 c 0
 532 608 557 551 557 497 c 0
 557 383 462 288 344 288 c 2
 218 288 l 1
 218 0 l 1
 75 0 l 1
 75 706 l 1
218 420 m 1
 344 420 l 2
 382 420 414 452 414 497 c 0
 414 520 405 540 394 552 c 1
 376 569 364 574 344 574 c 2
 218 574 l 1
 218 420 l 1
EndSplineSet
EndChar

StartChar: Q
Encoding: 81 81 30
Width: 805
Flags: MW
HStem: -2 132<340.5 408 340.5 426.5> 0 292<294 609 294 812> 568 132<340 455>
VStem: 44 143<288 409.5 288 444> 609 143<324 410>
LayerCount: 2
Fore
SplineSet
609 0 m 1x78
 566 40 l 1
 513 12 455 -2 398 -2 c 0xb8
 202 -2 44 156 44 349 c 0
 44 539 198 700 398 700 c 0
 594 700 752 542 752 349 c 0
 752 259 721 184 674 127 c 1
 812 0 l 1
 609 0 l 1x78
496 292 m 1x78
 571 222 l 1x78
 594 256 609 299 609 349 c 0
 609 471 512 568 398 568 c 0
 282 568 187 470 187 349 c 0
 187 227 283 130 398 130 c 0
 418 130 439 133 459 139 c 1xb8
 294 292 l 1
 496 292 l 1x78
EndSplineSet
EndChar

StartChar: R
Encoding: 82 82 31
Width: 689
Flags: MW
HStem: 324 133<220 303 220 374> 574 132<220 369 369 372 220 220>
VStem: 77 143<0 324 457 574> 436 140<497 534.5>
LayerCount: 2
Fore
SplineSet
303 324 m 1
 220 324 l 1
 220 0 l 1
 77 0 l 1
 77 706 l 1
 369 706 l 2
 496 706 576 619 576 515 c 0
 576 438 528 370 459 340 c 1
 672 0 l 1
 506 0 l 1
 303 324 l 1
220 457 m 1
 374 457 l 2
 416 457 436 478 436 516 c 0
 436 553 406 574 372 574 c 2
 220 574 l 1
 220 457 l 1
EndSplineSet
EndChar

StartChar: T
Encoding: 84 84 33
Width: 556
Flags: MW
HStem: 568 132<13 207 13 543 350 350 350 543>
VStem: 207 143<0 568>
LayerCount: 2
Fore
SplineSet
350 0 m 1
 207 0 l 1
 207 568 l 1
 13 568 l 1
 13 700 l 1
 543 700 l 1
 543 568 l 1
 350 568 l 1
 350 0 l 1
EndSplineSet
EndChar

StartChar: U
Encoding: 85 85 34
Width: 671
Flags: MW
HStem: -9 132<336 350 336 353 333 350>
VStem: 67 143<278 699> 476 143<279 699 279 699 279 699>
LayerCount: 2
Fore
SplineSet
210 699 m 1
 210 274 l 2
 210 249 215 129 336 123 c 1
 350 123 l 1
 455 128 472 219 476 260 c 1
 476 699 l 1
 619 699 l 1
 619 279 l 1
 619 279 629 1 353 -9 c 1
 333 -9 l 1
 56 1 67 279 67 278 c 2
 67 699 l 1
 210 699 l 1
EndSplineSet
EndChar

StartChar: V
Encoding: 86 86 35
Width: 685
Flags: MW
HStem: 0 700<10 281 10 404>
VStem: 10 665<700 700>
LayerCount: 2
Fore
SplineSet
281 0 m 1
 10 700 l 1
 162 700 l 1
 343 233 l 1
 524 700 l 1
 675 700 l 1
 404 0 l 1
 281 0 l 1
EndSplineSet
EndChar

StartChar: W
Encoding: 87 87 36
Width: 942
Flags: MW
HStem: 0 700<11 310 11 185 11 757 11 631>
VStem: 11 920<700 700>
LayerCount: 2
Fore
SplineSet
931 700 m 1
 757 0 l 1
 631 0 l 1
 471 452 l 1
 310 0 l 1
 185 0 l 1
 11 700 l 1
 158 700 l 1
 261 284 l 1
 409 700 l 1
 533 700 l 1
 681 284 l 1
 784 700 l 1
 931 700 l 1
EndSplineSet
EndChar

StartChar: X
Encoding: 88 88 37
Width: 837
Flags: MW
HStem: 0 700<82 185 7 261 652 652 652 758 82 830>
VStem: 7 823<0 0>
LayerCount: 2
Fore
SplineSet
185 0 m 1
 7 0 l 1
 328 398 l 1
 82 700 l 1
 261 700 l 1
 420 504 l 1
 579 700 l 1
 758 700 l 1
 510 395 l 1
 830 0 l 1
 652 0 l 1
 417 289 l 1
 185 0 l 1
EndSplineSet
EndChar

StartChar: Y
Encoding: 89 89 38
Width: 738
Flags: MW
HStem: 0 700<9 440 9 298>
VStem: 298 142<0 328 0 328>
LayerCount: 2
Fore
SplineSet
553 700 m 1
 729 700 l 1
 440 328 l 1
 440 0 l 1
 298 0 l 1
 298 328 l 1
 9 700 l 1
 185 700 l 1
 369 463 l 1
 553 700 l 1
EndSplineSet
EndChar

StartChar: Z
Encoding: 90 90 39
Width: 696
Flags: MW
HStem: 0 132<274 643 274 643> 568 132<97 418 97 685>
VStem: 6 679
LayerCount: 2
Fore
SplineSet
643 0 m 1
 6 0 l 1
 418 568 l 1
 97 568 l 1
 97 700 l 1
 685 700 l 1
 274 132 l 1
 643 132 l 1
 643 0 l 1
EndSplineSet
EndChar

StartChar: bracketleft
Encoding: 91 91 173
Width: 392
Flags: MW
HStem: -130 132<193 322 193 322> 638 132<193 322 193 193>
VStem: 50 143<2 2 2 638>
LayerCount: 2
Fore
SplineSet
193 2 m 1
 322 2 l 1
 322 -130 l 1
 50 -130 l 1
 50 770 l 1
 322 770 l 1
 322 638 l 1
 193 638 l 1
 193 2 l 1
EndSplineSet
EndChar

StartChar: backslash
Encoding: 92 92 157
Width: 600
Flags: MW
HStem: -113 828<152 305>
VStem: 18 421
LayerCount: 2
Fore
SplineSet
152 715 m 1
 439 -68 l 1
 305 -113 l 1
 18 670 l 1
 152 715 l 1
EndSplineSet
EndChar

StartChar: bracketright
Encoding: 93 93 174
Width: 392
Flags: MW
HStem: -130 900<70 342 70 342>
VStem: 70 272<-130 2 -130 770 638 638 638 770>
LayerCount: 2
Fore
SplineSet
70 2 m 1
 70 -130 l 1
 342 -130 l 1
 342 770 l 1
 70 770 l 1
 70 638 l 1
 200 638 l 1
 200 2 l 1
 70 2 l 1
EndSplineSet
EndChar

StartChar: asciicircum
Encoding: 94 94 219
Width: 600
Flags: MW
HStem: 366 480<176 274 274 373>
VStem: 50 449<428 428>
LayerCount: 2
Fore
SplineSet
176 366 m 1
 50 428 l 1
 274 846 l 1
 499 428 l 1
 373 366 l 1
 274 549 l 1
 176 366 l 1
EndSplineSet
EndChar

StartChar: underscore
Encoding: 95 95 170
Width: 600
Flags: MW
HStem: -161 132<22 561 22 561>
VStem: 22 539<-161 -29 -161 -29>
LayerCount: 2
Fore
SplineSet
561 -161 m 1
 22 -161 l 1
 22 -29 l 1
 561 -29 l 1
 561 -161 l 1
EndSplineSet
EndChar

StartChar: grave
Encoding: 96 96 240
Width: 600
Flags: MW
HStem: 530 194<170 342>
VStem: 137 231<610 615>
LayerCount: 2
Fore
SplineSet
368 615 m 1
 342 530 l 1
 137 610 l 1
 170 724 l 1
 368 615 l 1
EndSplineSet
EndChar

StartChar: b
Encoding: 98 98 41
Width: 587
Flags: MW
HStem: -7 128<289.5 341.5 286.5 381.5> 382 127<283.5 336>
VStem: 72 137<0 20 163 333 483 700> 425 137<214.5 291.5>
LayerCount: 2
Fore
SplineSet
209 700 m 1
 209 483 l 1
 232 499 263 509 304 509 c 0
 448 509 562 397 562 253 c 0
 562 110 453 -7 310 -7 c 0
 269 -7 236 3 209 20 c 1
 209 0 l 1
 72 0 l 1
 72 700 l 1
 209 700 l 1
209 333 m 1
 209 163 l 1
 229 139 263 121 310 121 c 0
 373 121 425 176 425 253 c 0
 425 330 368 382 304 382 c 0
 252 382 222 360 209 333 c 1
EndSplineSet
EndChar

StartChar: c
Encoding: 99 99 42
Width: 514
Flags: MW
HStem: -9 126<262 320 262 341> 388 127<261.5 318>
VStem: 32 137<214.5 289.5 214.5 322>
LayerCount: 2
Fore
SplineSet
413 191 m 1
 515 108 l 1
 475 42 386 -9 296 -9 c 0
 150 -9 32 108 32 253 c 0
 32 391 145 515 296 515 c 0
 380 515 464 470 504 413 c 1
 408 322 l 1
 383 368 340 388 296 388 c 0
 227 388 169 326 169 253 c 0
 169 176 228 117 296 117 c 0
 344 117 388 140 413 191 c 1
EndSplineSet
EndChar

StartChar: d
Encoding: 100 100 43
Width: 580
Flags: MW
HStem: -7 128<252.5 304.5> 382 127<258 310.5 218 316>
VStem: 32 137<214.5 291.5 214.5 325> 385 137<0 20 20 20 163 333 333 333 483 700 0 700>
LayerCount: 2
Fore
SplineSet
385 0 m 1
 385 20 l 1
 358 3 325 -7 284 -7 c 0
 141 -7 32 110 32 253 c 0
 32 397 146 509 290 509 c 0
 331 509 362 499 385 483 c 1
 385 700 l 1
 522 700 l 1
 522 0 l 1
 385 0 l 1
385 163 m 1
 385 333 l 1
 372 360 342 382 290 382 c 0
 226 382 169 330 169 253 c 0
 169 176 221 121 284 121 c 0
 331 121 365 139 385 163 c 1
EndSplineSet
EndChar

StartChar: f
Encoding: 102 102 45
Width: 394
Flags: MW
HStem: 380 127<15 96 15 96 233 355> 591 120<257 262 184 279>
VStem: 96 137<0 380 0 380 507 542>
LayerCount: 2
Fore
SplineSet
355 380 m 1
 233 380 l 1
 233 0 l 1
 96 0 l 1
 96 380 l 1
 15 380 l 1
 15 507 l 1
 96 507 l 1
 96 542 l 2
 96 602 120 711 248 711 c 0
 276 711 331 704 390 658 c 1
 323 551 l 1
 310 571 293 591 265 591 c 0
 249 591 233 579 233 542 c 2
 233 507 l 1
 355 507 l 1
 355 380 l 1
EndSplineSet
EndChar

StartChar: g
Encoding: 103 103 46
Width: 567
Flags: MW
HStem: -301 111<207.5 291 207.5 342> -51 120<286 325 268.5 342> 126 126<257.5 287.5 257 326> 382 127<257 286.5 218 287.5>
VStem: 20 102 21 121 77 137<298.5 335.5 298.5 370> 331 137<298.5 330 264.5 335.5> 409 129
LayerCount: 2
Fore
SplineSet
533 379 m 1xf280
 453 390 l 1
 462 367 468 343 468 317 c 0
 468 212 380 126 272 126 c 0
 243 126 217 131 193 142 c 1
 149 157 124 134 122 118 c 0
 119 98 124 68 210 68 c 0xf9
 230 68 255 69 282 69 c 0
 368 69 538 72 538 -92 c 0
 538 -236 435 -301 249 -301 c 0
 112 -301 10 -243 21 -125 c 0xf480
 27 -55 79 -27 89 -22 c 1
 39 0 11 51 20 108 c 0xf880
 27 155 64 192 112 207 c 1
 90 238 77 276 77 317 c 0
 77 423 164 509 272 509 c 0
 301 509 328 503 353 491 c 1
 539 504 l 1
 533 379 l 1xf280
272 382 m 0xf3
 242 382 214 354 214 317 c 0
 214 280 242 252 272 252 c 0
 303 252 331 280 331 317 c 0
 331 354 303 382 272 382 c 0xf3
251 -190 m 0xf480
 331 -190 419 -175 409 -100 c 0
 405 -65 365 -51 319 -51 c 0
 253 -51 205 -49 192 -49 c 0
 181 -49 148 -84 142 -115 c 0
 134 -151 164 -190 251 -190 c 0xf480
EndSplineSet
EndChar

StartChar: h
Encoding: 104 104 47
Width: 561
Flags: MW
HStem: 385 126<284.5 325>
VStem: 67 137<0 325 481 700> 384 137<0 297 0 324.5>
LayerCount: 2
Fore
SplineSet
204 700 m 1
 204 481 l 1
 232 500 265 511 304 511 c 0
 434 511 521 418 521 297 c 2
 521 0 l 1
 384 0 l 1
 384 297 l 2
 384 352 351 385 299 385 c 0
 268 385 227 370 204 325 c 1
 204 0 l 1
 67 0 l 1
 67 700 l 1
 204 700 l 1
EndSplineSet
EndChar

StartChar: i
Encoding: 105 105 48
Width: 264
Flags: MW
HStem: 537 138<110.5 149.5>
VStem: 64 137<0 506 0 506>
LayerCount: 2
Fore
SplineSet
58 606 m 0
 58 643 91 675 130 675 c 0
 169 675 201 643 201 606 c 0
 201 570 169 537 130 537 c 0
 91 537 58 570 58 606 c 0
64 0 m 1
 64 506 l 1
 201 506 l 1
 201 0 l 1
 64 0 l 1
EndSplineSet
EndChar

StartChar: j
Encoding: 106 106 49
Width: 244
Flags: MW
HStem: -180.92 126.71 537 138<98.5 137.5>
VStem: 47 143<588 624.5> 54 137<22 506>
LayerCount: 2
Fore
SplineSet
47 606 m 0xe0
 47 643 79 675 118 675 c 0
 157 675 190 643 190 606 c 0
 190 570 157 537 118 537 c 0
 79 537 47 570 47 606 c 0xe0
191 506 m 1x90
 191 22 l 2
 191 -126 60 -197 -63 -178 c 1
 -63 -49 l 1
 -1 -66 54 -43 54 22 c 2
 54 506 l 1
 191 506 l 1x90
EndSplineSet
EndChar

StartChar: k
Encoding: 107 107 50
Width: 568
Flags: MW
HStem: 0 700<71 208 71 208 71 393 71 551>
VStem: 71 137<0 235 401 700>
LayerCount: 2
Fore
SplineSet
208 0 m 1
 71 0 l 1
 71 700 l 1
 208 700 l 1
 208 401 l 1
 342 506 l 1
 549 506 l 1
 339 339 l 1
 551 0 l 1
 393 0 l 1
 233 255 l 1
 208 235 l 1
 208 0 l 1
EndSplineSet
EndChar

StartChar: l
Encoding: 108 108 51
Width: 253
Flags: MW
HStem: 0 700<52 189 52 189>
VStem: 52 137<0 700 0 700>
LayerCount: 2
Fore
SplineSet
189 700 m 1
 189 0 l 1
 52 0 l 1
 52 700 l 1
 189 700 l 1
EndSplineSet
EndChar

StartChar: m
Encoding: 109 109 52
Width: 899
Flags: MW
HStem: 385 120<78 338.5> 385 125<607.5 653.5>
VStem: 78 137<0 308 476 505> 393 137<0 293 0 320.5> 713 137<0 296 0 324>
LayerCount: 2
Fore
SplineSet
215 505 m 1xb8
 215 476 l 1
 242 497 276 511 317 511 c 0
 383 511 436 486 473 446 c 1
 507 483 558 510 632 510 c 0
 762 510 850 418 850 296 c 2
 850 0 l 1
 713 0 l 1
 713 296 l 2
 713 352 680 385 627 385 c 0
 588 385 549 363 529 317 c 1
 530 309 530 301 530 293 c 2
 530 0 l 1
 393 0 l 1
 393 293 l 2
 393 348 365 385 312 385 c 0
 270 385 230 355 215 308 c 1x78
 215 0 l 1
 78 0 l 1
 78 505 l 1
 215 505 l 1xb8
EndSplineSet
EndChar

StartChar: n
Encoding: 110 110 53
Width: 561
Flags: MW
HStem: 385 126<274 315>
VStem: 57 137<0 324 481 505> 374 137<0 297 0 324.5>
LayerCount: 2
Fore
SplineSet
194 505 m 1
 194 481 l 1
 221 500 254 511 294 511 c 0
 424 511 511 418 511 297 c 2
 511 0 l 1
 374 0 l 1
 374 297 l 2
 374 352 341 385 289 385 c 0
 252 385 214 365 194 324 c 1
 194 0 l 1
 57 0 l 1
 57 505 l 1
 194 505 l 1
EndSplineSet
EndChar

StartChar: o
Encoding: 111 111 54
Width: 591
Flags: MW
HStem: -8 128<262 328 262 367.5> 382 128<262.5 328>
VStem: 35 137<214 288 214 322.5> 418 137<214.5 288>
LayerCount: 2
Fore
SplineSet
555 251 m 0
 555 110 440 -8 295 -8 c 0
 150 -8 35 109 35 251 c 0
 35 394 152 510 295 510 c 0
 439 510 555 393 555 251 c 0
418 251 m 0
 418 325 361 382 295 382 c 0
 230 382 172 325 172 251 c 0
 172 177 229 120 295 120 c 0
 361 120 418 178 418 251 c 0
EndSplineSet
EndChar

StartChar: p
Encoding: 112 112 55
Width: 596
Flags: MW
HStem: -10 127<288 339.5 282 380> 384 127<283.5 334.5>
VStem: 69 138<-181 17 176 329 481 507> 423 137<210.5 287.5>
LayerCount: 2
Fore
SplineSet
207 507 m 1
 207 481 l 1
 228 499 264 511 303 511 c 0
 446 511 560 393 560 249 c 0
 560 106 452 -10 308 -10 c 0
 268 -10 234 0 207 17 c 1
 207 -181 l 1
 69 -181 l 1
 69 507 l 1
 207 507 l 1
207 329 m 1
 207 176 l 1
 221 146 256 117 308 117 c 0
 371 117 423 172 423 249 c 0
 423 326 366 384 303 384 c 0
 250 384 219 358 207 329 c 1
EndSplineSet
EndChar

StartChar: q
Encoding: 113 113 56
Width: 600
Flags: MW
HStem: -10 127<265.5 317> 384 127<270.5 321 230.5 328.5>
VStem: 45 137<210.5 287.5 210.5 321> 398 137<-181 17 17 17 176 329 329 329 481 508>
LayerCount: 2
Fore
SplineSet
535 -181 m 1
 398 -181 l 1
 398 17 l 1
 371 0 337 -10 297 -10 c 0
 153 -10 45 106 45 249 c 0
 45 393 159 511 302 511 c 0
 340 511 377 499 398 481 c 1
 398 508 l 1
 535 508 l 1
 535 -181 l 1
398 176 m 1
 398 329 l 1
 386 358 355 384 302 384 c 0
 239 384 182 326 182 249 c 0
 182 172 234 117 297 117 c 0
 349 117 384 146 398 176 c 1
EndSplineSet
EndChar

StartChar: r
Encoding: 114 114 57
Width: 424
Flags: MW
HStem: 389 119
VStem: 76 137<0 297 463 506>
LayerCount: 2
Fore
SplineSet
213 506 m 1
 213 463 l 1
 235 490 264 508 301 508 c 0
 329 508 373 502 419 456 c 1
 352 349 l 1
 339 369 322 388 293 389 c 0
 258 391 219 364 213 297 c 1
 213 0 l 1
 76 0 l 1
 76 506 l 1
 213 506 l 1
EndSplineSet
EndChar

StartChar: t
Encoding: 116 116 59
Width: 338
Flags: MW
HStem: -5 114<219 245.5> 394 112<-1 63 -1 63 200 329>
VStem: 63 137<149.5 164 164 394 506 700>
LayerCount: 2
Fore
SplineSet
289 126 m 1
 335 38 l 1
 321 25 284 -5 207 -5 c 0
 92 -5 63 68 63 125 c 2
 63 394 l 1
 -1 394 l 1
 -1 506 l 1
 63 506 l 1
 63 700 l 1
 200 700 l 1
 200 506 l 1
 329 506 l 1
 329 394 l 1
 200 394 l 1
 200 164 l 2
 200 135 201 109 237 109 c 0
 261 109 276 115 289 126 c 1
EndSplineSet
EndChar

StartChar: v
Encoding: 118 118 61
Width: 469
Flags: MW
HStem: 0 506<-15 274 -15 195>
VStem: -15 498<506 506>
LayerCount: 2
Fore
SplineSet
-15 506 m 1
 133 506 l 1
 234 248 l 1
 336 506 l 1
 483 506 l 1
 274 0 l 1
 195 0 l 1
 -15 506 l 1
EndSplineSet
EndChar

StartChar: w
Encoding: 119 119 62
Width: 680
Flags: MW
HStem: 0 506<151 152 9 252 151 151 528 529 9 428>
VStem: 9 662<506 506>
LayerCount: 2
Fore
SplineSet
9 506 m 1
 152 506 l 1
 212 260 l 1
 291 506 l 1
 389 506 l 1
 468 260 l 1
 528 506 l 1
 671 506 l 1
 529 0 l 1
 428 0 l 1
 340 250 l 1
 252 0 l 1
 151 0 l 1
 9 506 l 1
EndSplineSet
EndChar

StartChar: x
Encoding: 120 120 63
Width: 609
Flags: MW
HStem: 0 506<8 177 2 182 433 606 8 432>
VStem: 2 605<0 506>
LayerCount: 2
Fore
SplineSet
182 506 m 1
 308 351 l 1
 433 506 l 1
 607 506 l 1
 395 248 l 1
 606 0 l 1
 432 0 l 1
 304 150 l 1
 177 0 l 1
 2 0 l 1
 217 253 l 1
 8 506 l 1
 182 506 l 1
EndSplineSet
EndChar

StartChar: y
Encoding: 121 121 64
Width: 653
Flags: MW
HStem: -186 692<93 166 9 249 93 93>
VStem: 9 638<506 506>
LayerCount: 2
Fore
SplineSet
252 86 m 1
 9 506 l 1
 166 506 l 1
 330 219 l 1
 492 506 l 1
 647 506 l 1
 249 -186 l 1
 93 -186 l 1
 252 86 l 1
EndSplineSet
EndChar

StartChar: braceleft
Encoding: 123 123 171
Width: 334
Flags: MW
HStem: -158 131<234.5 246 234.5 258.5> 244 127<20 37.5> 641 132<234.5 248>
VStem: 78 149<-52 193.5>
LayerCount: 2
Fore
SplineSet
267 -20 m 1
 329 -139 l 1
 329 -139 284 -158 233 -158 c 0
 165 -158 78 -125 78 21 c 0
 78 79 83 133 83 175 c 0
 83 244 55 244 20 244 c 1
 20 371 l 1
 55 371 83 377 83 441 c 0
 83 483 78 537 78 595 c 0
 78 740 172 773 237 773 c 0
 283 773 321 758 321 758 c 1
 283 631 l 1
 272 634 255 641 241 641 c 0
 228 641 221 634 221 595 c 0
 221 551 227 498 227 447 c 0
 227 398 226 347 175 308 c 1
 226 269 227 218 227 169 c 0
 227 118 221 65 221 21 c 0
 221 -18 229 -27 240 -27 c 0
 252 -27 264 -22 267 -20 c 1
EndSplineSet
EndChar

StartChar: bar
Encoding: 124 124 221
Width: 600
Flags: MW
HStem: -152 909<256 399 256 399>
VStem: 256 143<-152 757 -152 757>
LayerCount: 2
Fore
SplineSet
256 -152 m 1
 256 757 l 1
 399 757 l 1
 399 -152 l 1
 256 -152 l 1
EndSplineSet
EndChar

StartChar: braceright
Encoding: 125 125 172
Width: 334
Flags: MW
HStem: -158 931<76 130.5 75 136>
VStem: 5 309
LayerCount: 2
Fore
SplineSet
68 -20 m 1
 5 -139 l 1
 5 -139 50 -158 102 -158 c 0
 170 -158 256 -125 256 21 c 0
 256 79 251 133 251 175 c 0
 251 244 280 244 314 244 c 1
 314 371 l 1
 280 371 251 377 251 441 c 0
 251 483 256 537 256 595 c 0
 256 740 163 773 98 773 c 0
 52 773 13 758 13 758 c 1
 52 631 l 1
 62 634 80 641 94 641 c 0
 107 641 114 634 114 595 c 0
 114 551 108 498 108 447 c 0
 108 398 109 347 159 308 c 1
 109 269 108 218 108 169 c 0
 108 118 114 65 114 21 c 0
 114 -18 105 -27 95 -27 c 0
 82 -27 71 -22 68 -20 c 1
EndSplineSet
EndChar

StartChar: asciitilde
Encoding: 126 126 197
Width: 600
Flags: MW
HStem: 230 127<364 400 364 442.5> 367 126<192 223.5>
VStem: 44 133<336 350 336 387.5> 417 134<369.5 384>
LayerCount: 2
Fore
SplineSet
189 311 m 1
 67 271 l 1
 52 286 44 321 44 340 c 0
 44 435 107 493 192 493 c 0xf0
 323 493 332 357 396 357 c 0
 404 357 417 361 417 378 c 0
 417 390 411 408 388 430 c 1
 503 489 l 1
 532 466 551 416 551 376 c 0
 551 276 482 230 403 230 c 0xb0
 269 230 249 367 198 367 c 0
 186 367 177 359 177 341 c 0
 177 331 183 320 189 311 c 1
EndSplineSet
EndChar

StartChar: exclamdown
Encoding: 161 161 162
Width: 600
Flags: MW
HStem: 563 72<180 234 180 277 137 234>
VStem: 111 192<702.5 753.5>
LayerCount: 2
Fore
SplineSet
207 822 m 0
 153 822 111 779 111 728 c 0
 111 677 153 635 207 635 c 0
 261 635 303 677 303 728 c 0
 303 779 261 822 207 822 c 0
277 563 m 1
 137 563 l 1
 118 70 l 1
 296 70 l 1
 277 563 l 1
EndSplineSet
EndChar

StartChar: cent
Encoding: 162 162 191
Width: 579
Flags: MW
HStem: -9 210<273.5 329 273.5 371 228 329> 468 208<271.5 328>
VStem: 44 143<297 370.5 297 390> 228 143<-9 79 -9 81 -9 81 590 676>
LayerCount: 2
Fore
SplineSet
418 286 m 1
 533 210 l 1
 513 155 445 101 371 79 c 1
 371 -9 l 1
 228 -9 l 1
 228 81 l 1
 120 115 44 217 44 335 c 0
 44 445 113 554 228 589 c 1
 228 676 l 1
 371 676 l 1
 371 590 l 1
 441 570 504 521 525 472 c 1
 415 391 l 1
 386 442 351 468 305 468 c 0
 238 468 187 406 187 335 c 0
 187 259 242 201 305 201 c 0
 353 201 390 230 418 286 c 1
EndSplineSet
EndChar

StartChar: sterling
Encoding: 163 163 194
Width: 600
Flags: MW
HStem: -23 126<372.5 420.5 372.5 472.5> 277 132<7 73 7 117 7 73 267 267 267 436> 603 128
VStem: 64.16 140.07 135.41 141.46 445 131<128.5 164>
LayerCount: 2
Fore
SplineSet
445 164 m 1xf4
 576 145 l 1
 576 112 552 -23 393 -23 c 0
 261 -23 223 57 160 57 c 0
 108 57 109 -4 109 -4 c 1
 -28 34 l 1
 -28 34 1 161 133 176 c 1
 138 201 137 235 117 277 c 1xec
 7 277 l 1
 7 409 l 1
 73 409 l 1
 41 569 90 739 316 731 c 0
 390 728 463 681 491 629 c 1
 398 546 l 1
 386 559 353 603 309 603 c 0
 209 603 186 513 217 409 c 1xf4
 436 409 l 1
 436 277 l 1
 267 277 l 1
 281 226 278 181 271 147 c 1xec
 314 126 352 103 393 103 c 0
 448 103 448 139 445 164 c 1xf4
EndSplineSet
EndChar

StartChar: currency
Encoding: 164 164 192
Width: 743
Flags: MW
HStem: 125 132<352.5 391.5> 456 132<352.5 391.5 352.5 396.5>
VStem: 138 143<336.5 376> 463 143<336.5 376 336.5 384.5>
LayerCount: 2
Fore
SplineSet
687 575 m 1
 578 466 l 1
 596 433 606 396 606 356 c 0
 606 317 596 280 579 248 c 1
 687 140 l 1
 585 47 l 1
 481 151 l 1
 448 134 411 125 372 125 c 0
 333 125 296 134 264 151 c 1
 159 47 l 1
 58 140 l 1
 165 248 l 1
 148 280 138 317 138 356 c 0
 138 396 148 434 166 466 c 1
 58 575 l 1
 159 668 l 1
 265 562 l 1
 297 579 333 588 372 588 c 0
 411 588 448 578 480 562 c 1
 585 668 l 1
 687 575 l 1
281 356 m 0
 281 300 324 257 372 257 c 0
 421 257 463 300 463 356 c 0
 463 413 421 456 372 456 c 0
 324 456 281 413 281 356 c 0
EndSplineSet
EndChar

StartChar: yen
Encoding: 165 165 195
Width: 600
Flags: MW
HStem: 126 95<80 247 80 247 390 544> 272 95<80 202 80 247 80 202 422 544>
VStem: 247 143<1 126 1 126 221 272>
LayerCount: 2
Fore
SplineSet
544 272 m 1
 390 272 l 1
 390 221 l 1
 544 221 l 1
 544 126 l 1
 390 126 l 1
 390 1 l 1
 247 1 l 1
 247 126 l 1
 80 126 l 1
 80 221 l 1
 247 221 l 1
 247 272 l 1
 80 272 l 1
 80 367 l 1
 202 367 l 1
 -14 644 l 1
 99 725 l 1
 312 451 l 1
 525 725 l 1
 638 644 l 1
 422 367 l 1
 544 367 l 1
 544 272 l 1
EndSplineSet
EndChar

StartChar: brokenbar
Encoding: 166 166 222
Width: 600
Flags: MW
HStem: -63 807<127 269 127 269>
VStem: 127 142<-63 305 -63 305 377 744>
LayerCount: 2
Fore
SplineSet
127 377 m 1
 127 744 l 1
 269 744 l 1
 269 377 l 1
 127 377 l 1
127 -63 m 1
 127 305 l 1
 269 305 l 1
 269 -63 l 1
 127 -63 l 1
EndSplineSet
EndChar

StartChar: section
Encoding: 167 167 229
Width: 600
Flags: MW
HStem: -109 132<268 328 268 352> 637 132
VStem: 82 142 398 143<65 108.5 15.5 109.5 294.5 324.5>
LayerCount: 2
Fore
SplineSet
242 550 m 1
 243 548 l 1
 259 536 285 525 321 511 c 0
 381 488 541 451 541 301 c 0
 541 259 527 223 505 193 c 1
 526 166 541 131 541 86 c 0
 541 -55 405 -109 299 -109 c 0
 178 -109 86 -30 61 10 c 1
 182 81 l 1
 197 56 237 23 299 23 c 0
 357 23 398 44 398 86 c 0
 398 133 336 147 269 173 c 1
 205 199 92 241 82 352 c 0
 78 400 92 443 120 478 c 1
 100 501 85 530 82 567 c 0
 71 685 173 775 301 769 c 0
 421 763 492 678 493 677 c 1
 383 593 l 1
 379 597 348 634 294 637 c 0
 249 639 221 613 224 578 c 0
 225 567 231 558 241 550 c 1
 242 550 l 1
269 388 m 2
 236 401 l 1
 227 392 223 378 224 363 c 0
 227 334 261 320 321 296 c 0
 338 290 364 282 391 271 c 1
 396 278 398 288 398 301 c 0
 398 348 336 362 269 388 c 2
EndSplineSet
EndChar

StartChar: dieresis
Encoding: 168 168 238
Width: 574
Flags: MW
HStem: 552 138<82.5 121 452.5 491.5>
VStem: 30 143<602.5 639> 400 144<602.5 639>
LayerCount: 2
Fore
SplineSet
30 621 m 0
 30 657 63 690 102 690 c 0
 140 690 173 657 173 621 c 0
 173 584 140 552 102 552 c 0
 63 552 30 584 30 621 c 0
400 621 m 0
 400 657 433 690 472 690 c 0
 511 690 544 657 544 621 c 0
 544 584 511 552 472 552 c 0
 433 552 400 584 400 621 c 0
EndSplineSet
EndChar

StartChar: copyright
Encoding: 169 169 223
Width: 817
Flags: MW
HStem: -17 132<368 470.5 368 510> 198 94<395 420 395 439> 420 94<394.5 420> 585 132<345.5 450.5>
VStem: 37 142<325.5 416 325.5 450> 255 101<337 374 337 395> 637 143<284 372.5>
LayerCount: 2
Fore
SplineSet
92 157 m 0
 58 213 37 283 37 350 c 0
 37 550 204 717 408 717 c 0
 548 717 674 637 734 526 c 0
 762 475 780 411 780 350 c 0
 780 151 612 -17 408 -17 c 0
 275 -17 155 55 92 157 c 0
213 227 m 0
 256 158 328 115 408 115 c 0
 533 115 637 218 637 350 c 0
 637 395 628 428 609 463 c 0
 568 538 493 585 408 585 c 0
 283 585 179 482 179 350 c 0
 179 301 191 264 213 227 c 0
464 340 m 1
 546 286 l 1
 531 242 469 198 409 198 c 0
 324 198 255 272 255 356 c 0
 255 434 317 514 409 514 c 0
 466 514 527 474 541 434 c 1
 464 376 l 1
 450 410 431 420 409 420 c 0
 380 420 356 392 356 356 c 0
 356 318 381 292 409 292 c 0
 431 292 455 306 464 340 c 1
EndSplineSet
EndChar

StartChar: ordfeminine
Encoding: 170 170 136
Width: 362
Flags: MW
HStem: 450 80<130 153> 591 64<150.5 209> 701 75<155.5 182>
VStem: 27 81<549.5 569.5 549.5 595.5> 209 87<453 471 471 471 569.5 588 651 655 453 668.5>
LayerCount: 2
Fore
SplineSet
105 659 m 1
 45 711 l 1
 69 744 108 776 170 776 c 0
 239 776 296 729 296 655 c 2
 296 453 l 1
 209 453 l 1
 209 471 l 1
 196 458 167 450 139 450 c 0
 61 450 27 505 27 551 c 0
 27 640 103 661 179 655 c 0
 191 654 201 653 209 651 c 1
 209 655 l 2
 209 682 194 701 170 701 c 0
 141 701 123 685 105 659 c 1
209 588 m 1
 200 590 183 591 170 591 c 0
 131 591 108 583 108 556 c 0
 108 543 118 530 142 530 c 0
 182 530 209 551 209 588 c 1
EndSplineSet
EndChar

StartChar: guillemotleft
Encoding: 171 171 180
Width: 761
Flags: MW
HStem: 37 473<269 269 269 532>
VStem: 30 606<124 273>
LayerCount: 2
Fore
SplineSet
269 510 m 1
 373 422 l 1
 237 273 l 1
 373 124 l 1
 269 37 l 1
 30 273 l 1
 269 510 l 1
532 510 m 1
 636 422 l 1
 500 273 l 1
 636 124 l 1
 532 37 l 1
 293 273 l 1
 532 510 l 1
EndSplineSet
EndChar

StartChar: logicalnot
Encoding: 172 172 206
Width: 744
Flags: MW
HStem: 333 132<43 561 43 704>
VStem: 561 143<135 333 333 333>
LayerCount: 2
Fore
SplineSet
704 135 m 1
 561 135 l 1
 561 333 l 1
 43 333 l 1
 43 465 l 1
 704 465 l 1
 704 135 l 1
EndSplineSet
EndChar

StartChar: softhyphen
Encoding: 173 173 179
Width: 600
Flags: MW
HStem: 220 130<68 432 68 432>
VStem: 68 364<220 350 220 350>
LayerCount: 2
Fore
SplineSet
432 350 m 1
 432 220 l 1
 68 220 l 1
 68 350 l 1
 432 350 l 1
EndSplineSet
EndChar

StartChar: registered
Encoding: 174 174 228
Width: 817
Flags: MW
HStem: -17 132<363.5 470.5 363.5 510> 324 84<396 413 396 433> 434 79<396 433 396 396> 585 132<345.5 454>
VStem: 37 142<330.5 416 330.5 450> 304 92<212 324 408 434> 433 108<408 408 434 434> 637 143<284 368.5>
LayerCount: 2
Fore
SplineSet
738 519 m 0
 764 469 780 408 780 350 c 0
 780 151 612 -17 408 -17 c 0
 276 -17 157 54 93 155 c 1
 93 156 l 1
 93 156 93 156 92 156 c 1
 92 157 l 1
 92 157 92 157 91 158 c 1
 91 159 l 1
 91 159 91 159 90 160 c 0
 90 161 90 161 89 161 c 0
 57 216 37 284 37 350 c 0
 37 550 204 717 408 717 c 0
 551 717 679 634 738 519 c 0
408 115 m 0
 533 115 637 218 637 350 c 0
 637 387 631 416 618 444 c 0
 579 530 500 585 408 585 c 0
 283 585 179 482 179 350 c 0
 179 311 186 280 201 250 c 0
 241 167 319 115 408 115 c 0
304 513 m 1
 443 513 l 2
 496 513 541 468 541 418 c 0xbf
 541 387 523 358 497 340 c 1
 561 210 l 1
 462 210 l 1
 413 324 l 1
 396 324 l 1
 396 212 l 1
 304 212 l 1xff
 304 513 l 1
396 408 m 1xff
 433 408 l 2
 434 408 448 408 448 421 c 0xff
 448 434 434 434 433 434 c 2
 396 434 l 1xbf
 396 408 l 1xff
EndSplineSet
EndChar

StartChar: macron
Encoding: 175 175 242
Width: 600
Flags: MW
HStem: 514 93<91 511 91 511>
VStem: 91 420<514 607 514 607>
LayerCount: 2
Fore
SplineSet
91 607 m 1
 511 607 l 1
 511 514 l 1
 91 514 l 1
 91 607 l 1
EndSplineSet
EndChar

StartChar: degree
Encoding: 176 176 226
Width: 600
Flags: MW
HStem: 465 114<289.5 318.5 289.5 354.5> 702 114<289.5 318.5>
VStem: 123 127<622.5 659 622.5 688.5> 358 127<622.5 659>
LayerCount: 2
Fore
SplineSet
304 465 m 0
 203 465 123 545 123 641 c 0
 123 736 203 816 304 816 c 0
 405 816 485 736 485 641 c 0
 485 545 405 465 304 465 c 0
304 579 m 0
 333 579 358 604 358 641 c 0
 358 677 333 702 304 702 c 0
 275 702 250 677 250 641 c 0
 250 604 275 579 304 579 c 0
EndSplineSet
EndChar

StartChar: plusminus
Encoding: 177 177 214
Width: 600
Flags: MW
HStem: -37 132<20 583 20 583> 289 133<20 230 20 230 373 583>
VStem: 230 143<136 289 136 289 422 574>
LayerCount: 2
Fore
SplineSet
373 289 m 1
 373 136 l 1
 230 136 l 1
 230 289 l 1
 20 289 l 1
 20 422 l 1
 230 422 l 1
 230 574 l 1
 373 574 l 1
 373 422 l 1
 583 422 l 1
 583 289 l 1
 373 289 l 1
583 -37 m 1
 20 -37 l 1
 20 95 l 1
 583 95 l 1
 583 -37 l 1
EndSplineSet
EndChar

StartChar: twosuperior
Encoding: 178 178 153
Width: 360
Flags: MW
HStem: 484 121<215 340 215 340> 800 123<169.5 187>
VStem: 35 113<757 823.5> 37 303<484 579 579 579> 198.89 128.78
LayerCount: 2
Fore
SplineSet
37 484 m 1x90
 37 579 l 1x90
 65 618 162 724 192 767 c 0
 207 787 196 800 178 800 c 0
 161 800 148 781 148 757 c 1
 35 788 l 1
 35 859 100 923 181 923 c 0xe8
 297 923 372 804 299 703 c 0
 285 683 241 638 215 605 c 1
 340 605 l 1
 340 484 l 1
 37 484 l 1x90
EndSplineSet
EndChar

StartChar: threesuperior
Encoding: 179 179 154
Width: 330
Flags: MW
HStem: 477 117<155.5 180.5 155.5 208.5> 670 80 808 108<146.5 170.5>
VStem: 187 114<770.5 785> 206 114<619.5 640.5>
LayerCount: 2
Fore
SplineSet
118 769 m 1xf0
 22 795 l 1
 37 867 91 916 161 916 c 0
 239 916 301 855 301 782 c 0xf0
 301 750 282 728 271 722 c 1
 297 706 320 675 320 629 c 0
 320 549 256 477 161 477 c 0
 79 477 15 536 9 588 c 1
 108 634 l 1
 121 602 146 594 165 594 c 0
 196 594 206 610 206 629 c 0
 206 652 182 663 159 667 c 0xe8
 147 669 134 670 121 670 c 1
 121 748 l 1
 155 752 l 1
 169 756 187 760 187 781 c 0
 187 789 184 808 157 808 c 0
 136 808 122 797 118 769 c 1xf0
EndSplineSet
EndChar

StartChar: acute
Encoding: 180 180 233
Width: 600
Flags: MW
HStem: 530 194<163 334>
VStem: 137 231<610 615>
LayerCount: 2
Fore
SplineSet
368 610 m 1
 163 530 l 1
 137 615 l 1
 334 724 l 1
 368 610 l 1
EndSplineSet
EndChar

StartChar: paragraph
Encoding: 182 182 227
Width: 670
Flags: MW
HStem: 379 132<179 275 236 275> 651 132<227.5 615 236 275 418 473 418 418>
VStem: 30 143<561 592 561 607.5> 275 143<-171 379 379 379 511 651 -171 651> 473 142<-171 651 651 651>
LayerCount: 2
Fore
SplineSet
473 -171 m 1
 473 651 l 1
 418 651 l 1
 418 -171 l 1
 275 -171 l 1
 275 379 l 1
 236 379 l 2
 122 379 30 470 30 581 c 0
 30 634 55 688 90 724 c 1
 125 758 181 783 236 783 c 2
 615 783 l 1
 615 -171 l 1
 473 -171 l 1
275 651 m 1
 236 651 l 2
 219 651 207 646 191 630 c 0
 181 620 173 603 173 581 c 0
 173 541 203 511 236 511 c 2
 275 511 l 1
 275 651 l 1
EndSplineSet
EndChar

StartChar: periodcentered
Encoding: 183 183 164
Width: 600
Flags: MW
HStem: 209 187<160 213.5>
VStem: 90 193<276.5 328>
LayerCount: 2
Fore
SplineSet
187 209 m 0
 133 209 90 251 90 302 c 0
 90 354 133 396 187 396 c 0
 240 396 283 354 283 302 c 0
 283 251 240 209 187 209 c 0
EndSplineSet
EndChar

StartChar: cedilla
Encoding: 184 184 236
Width: 600
Flags: MW
HStem: -183 205<279 288>
VStem: 189 189<-122 -38>
LayerCount: 2
Fore
SplineSet
378 -38 m 1
 279 -183 l 1
 189 -122 l 1
 288 22 l 1
 378 -38 l 1
EndSplineSet
EndChar

StartChar: onesuperior
Encoding: 185 185 152
Width: 359
Flags: MW
HStem: 487 431<170 278 170 278 135 278>
VStem: 135 143<487 739 739 739>
LayerCount: 2
Fore
SplineSet
278 918 m 1
 278 487 l 1
 135 487 l 1
 135 739 l 1
 53 678 l 1
 53 851 l 1
 170 918 l 1
 278 918 l 1
EndSplineSet
EndChar

StartChar: ordmasculine
Encoding: 186 186 137
Width: 402
Flags: MW
HStem: 446 81<179.5 221 179.5 246> 693 81<179.5 221>
VStem: 35 88<586.5 633.5 586.5 655.5> 278 87<587 633.5>
LayerCount: 2
Fore
SplineSet
365 610 m 0
 365 521 292 446 200 446 c 0
 109 446 35 520 35 610 c 0
 35 701 110 774 200 774 c 0
 292 774 365 700 365 610 c 0
278 610 m 0
 278 657 242 693 200 693 c 0
 159 693 123 657 123 610 c 0
 123 563 159 527 200 527 c 0
 242 527 278 564 278 610 c 0
EndSplineSet
EndChar

StartChar: guillemotright
Encoding: 187 187 181
Width: 761
Flags: MW
HStem: 37 473<230 230 230 492>
VStem: 125 606<124 273 273 422>
LayerCount: 2
Fore
SplineSet
125 422 m 1
 261 273 l 1
 125 124 l 1
 230 37 l 1
 468 273 l 1
 230 510 l 1
 125 422 l 1
388 422 m 1
 524 273 l 1
 388 124 l 1
 492 37 l 1
 731 273 l 1
 492 510 l 1
 388 422 l 1
EndSplineSet
EndChar

StartChar: onequarter
Encoding: 188 188 150
Width: 789
Flags: MW
HStem: 60 96<519 563>
VStem: 135 143<487 739 739 739> 568 120<157 233 233 233>
LayerCount: 2
Fore
SplineSet
278 918 m 1
 278 487 l 1
 135 487 l 1
 135 739 l 1
 53 678 l 1
 53 851 l 1
 170 918 l 1
 278 918 l 1
189 -23 m 1
 71 52 l 1
 626 883 l 1
 744 808 l 1
 189 -23 l 1
563 -17 m 1
 563 60 l 1
 414 60 l 1
 414 157 l 1
 580 414 l 1
 688 414 l 1
 688 157 l 1
 731 157 l 1
 731 60 l 1
 688 60 l 1
 688 -17 l 1
 563 -17 l 1
568 156 m 1
 568 233 l 1
 519 156 l 1
 568 156 l 1
EndSplineSet
EndChar

StartChar: onehalf
Encoding: 189 189 149
Width: 847
Flags: MW
HStem: -16 121<673 797 673 797> 299 123<627.5 645>
VStem: 135 143<487 739 739 739> 492 113<257 323.5> 494 303<-16 79 79 79> 656.21 129.3
LayerCount: 2
Fore
SplineSet
278 918 m 1xa4
 278 487 l 1
 135 487 l 1
 135 739 l 1
 53 678 l 1
 53 851 l 1
 170 918 l 1
 278 918 l 1xa4
185 -23 m 1
 67 52 l 1
 622 883 l 1
 740 808 l 1
 185 -23 l 1
494 -16 m 1xa8
 494 79 l 1xa8
 522 118 619 224 649 266 c 0
 664 287 654 299 636 299 c 0
 619 299 605 281 605 257 c 1
 492 288 l 1
 492 359 557 422 638 422 c 0xf4
 754 422 830 304 757 203 c 0
 742 183 698 138 673 105 c 1
 797 105 l 1
 797 -16 l 1
 494 -16 l 1xa8
EndSplineSet
EndChar

StartChar: threequarters
Encoding: 190 190 151
Width: 789
Flags: MW
HStem: 60 96<519 563> 477 117<155.5 180.5 155.5 208.5> 670 80 808 108<146.5 170.5>
VStem: 187 114<770.5 785> 206 114<619.5 640.5> 568 120<157 233 233 233>
LayerCount: 2
Fore
SplineSet
118 769 m 1xfa
 22 795 l 1
 37 867 91 916 161 916 c 0
 239 916 301 855 301 782 c 0xfa
 301 750 282 728 271 722 c 1
 297 706 320 675 320 629 c 0
 320 549 256 477 161 477 c 0
 79 477 15 536 9 588 c 1
 108 634 l 1
 121 602 146 594 165 594 c 0
 196 594 206 610 206 629 c 0
 206 652 182 663 159 667 c 0xf6
 147 669 134 670 121 670 c 1
 121 748 l 1
 155 752 l 1
 169 756 187 760 187 781 c 0
 187 789 184 808 157 808 c 0
 136 808 122 797 118 769 c 1xfa
172 -23 m 1
 54 52 l 1
 609 883 l 1
 727 808 l 1
 172 -23 l 1
563 -17 m 1
 563 60 l 1
 414 60 l 1
 414 157 l 1
 580 414 l 1
 688 414 l 1
 688 157 l 1
 731 157 l 1
 731 60 l 1
 688 60 l 1
 688 -17 l 1
 563 -17 l 1
568 156 m 1
 568 233 l 1
 519 156 l 1
 568 156 l 1
EndSplineSet
EndChar

StartChar: questiondown
Encoding: 191 191 166
Width: 600
Flags: MW
HStem: 507 73<157 259 205 259 205 297>
VStem: 83 372.48
LayerCount: 2
Fore
SplineSet
232 767 m 0
 178 767 135 725 135 673 c 0
 135 622 178 580 232 580 c 0
 286 580 328 622 328 673 c 0
 328 725 286 767 232 767 c 0
157 507 m 1
 142 309 l 1
 231 281 307 259 312 201 c 0
 315 167 294 146 257 148 c 0
 221 150 202 185 202 185 c 1
 83 118 l 1
 83 118 122 23 250 16 c 0
 370 9 464 99 455 212 c 0
 446 313 368 368 297 399 c 1
 297 507 l 1
 157 507 l 1
EndSplineSet
EndChar

StartChar: Agrave
Encoding: 192 192 98
Width: 703
Flags: MW
HStem: 199 132<299 413 299 464 247 413>
VStem: 17 677<0 0>
LayerCount: 2
Fore
SplineSet
476 815 m 1
 450 730 l 1
 245 810 l 1
 279 924 l 1
 476 815 l 1
17 0 m 1
 291 700 l 1
 420 700 l 1
 694 0 l 1
 542 0 l 1
 464 199 l 1
 247 199 l 1
 169 0 l 1
 17 0 l 1
413 331 m 1
 356 477 l 1
 299 331 l 1
 413 331 l 1
EndSplineSet
EndChar

StartChar: Aacute
Encoding: 193 193 105
Width: 703
Flags: MW
HStem: 199 132<299 413 299 464 247 413>
VStem: 17 677<0 0>
LayerCount: 2
Fore
SplineSet
479 810 m 1
 274 730 l 1
 248 815 l 1
 445 924 l 1
 479 810 l 1
17 0 m 1
 291 700 l 1
 420 700 l 1
 694 0 l 1
 542 0 l 1
 464 199 l 1
 247 199 l 1
 169 0 l 1
 17 0 l 1
413 331 m 1
 356 477 l 1
 299 331 l 1
 413 331 l 1
EndSplineSet
EndChar

StartChar: Acircumflex
Encoding: 194 194 103
Width: 703
Flags: MW
HStem: 199 132<299 413 299 464 247 413>
VStem: 17 677<0 0>
LayerCount: 2
Fore
SplineSet
356 804 m 1
 205 745 l 1
 179 831 l 1
 356 930 l 1
 533 831 l 1
 507 745 l 1
 356 804 l 1
17 0 m 1
 291 700 l 1
 420 700 l 1
 694 0 l 1
 542 0 l 1
 464 199 l 1
 247 199 l 1
 169 0 l 1
 17 0 l 1
413 331 m 1
 356 477 l 1
 299 331 l 1
 413 331 l 1
EndSplineSet
EndChar

StartChar: Atilde
Encoding: 195 195 99
Width: 703
Flags: MW
HStem: 199 132<299 413 299 464 247 413> 756 85.36
VStem: 195.81 85.19 415.5 89.94
LayerCount: 2
Fore
SplineSet
407 893 m 1
 498 893 l 1
 527 806 466 756 412 756 c 0
 349 756 323 804 294 794 c 0
 281 789 277 766 281 750 c 1
 198 774 l 1
 188 820 211 887 280 887 c 0
 336 887 383 826 409 845 c 0
 423 856 413 879 407 893 c 1
17 0 m 1
 291 700 l 1
 420 700 l 1
 694 0 l 1
 542 0 l 1
 464 199 l 1
 247 199 l 1
 169 0 l 1
 17 0 l 1
413 331 m 1
 356 477 l 1
 299 331 l 1
 413 331 l 1
EndSplineSet
EndChar

StartChar: Adieresis
Encoding: 196 196 66
Width: 703
Flags: MW
HStem: 199 132<299 413 299 464 247 413> 732 138<160.5 199.5 531.5 570.5>
VStem: 109 143<783 819.5> 479 143<783 819.5>
LayerCount: 2
Fore
SplineSet
109 801 m 0
 109 838 141 870 180 870 c 0
 219 870 252 838 252 801 c 0
 252 765 219 732 180 732 c 0
 141 732 109 765 109 801 c 0
479 801 m 0
 479 838 512 870 551 870 c 0
 590 870 622 838 622 801 c 0
 622 765 590 732 551 732 c 0
 512 732 479 765 479 801 c 0
17 0 m 1
 291 700 l 1
 420 700 l 1
 694 0 l 1
 542 0 l 1
 464 199 l 1
 247 199 l 1
 169 0 l 1
 17 0 l 1
413 331 m 1
 356 477 l 1
 299 331 l 1
 413 331 l 1
EndSplineSet
EndChar

StartChar: Aring
Encoding: 197 197 67
Width: 703
Flags: MW
HStem: 199 132<299 413 299 464 247 413> 857 82<343.5 368.5>
VStem: 221 88<791.5 820.5 791.5 842.5> 403 88<791.5 820.5>
LayerCount: 2
Fore
SplineSet
464 199 m 1
 247 199 l 1
 169 0 l 1
 17 0 l 1
 288 691 l 1
 248 714 221 757 221 806 c 0
 221 879 281 939 356 939 c 0
 431 939 491 879 491 806 c 0
 491 757 464 714 424 691 c 1
 694 0 l 1
 542 0 l 1
 464 199 l 1
356 857 m 0
 331 857 309 835 309 806 c 0
 309 777 331 756 356 756 c 0
 381 756 403 777 403 806 c 0
 403 835 381 857 356 857 c 0
299 331 m 1
 413 331 l 1
 356 477 l 1
 299 331 l 1
EndSplineSet
EndChar

StartChar: AE
Encoding: 198 198 118
Width: 1102
Flags: MW
HStem: 0 132<701 1043 701 1043> 200 132<450 558 450 558 347 558> 287 132<701 976 701 976> 568 132<701 1043 701 701>
VStem: 558 143<132 200 200 200 419 473 473 473>
LayerCount: 2
Fore
SplineSet
558 200 m 1xd8
 347 200 l 1xd8
 192 1 l 1
 13 1 l 1
 571 700 l 1
 1043 700 l 1
 1043 568 l 1
 701 568 l 1
 701 419 l 1
 976 419 l 1
 976 287 l 1
 701 287 l 1xb8
 701 132 l 1
 1043 132 l 1
 1043 0 l 1
 558 0 l 1
 558 200 l 1xd8
558 332 m 1
 558 473 l 1
 450 332 l 1
 558 332 l 1
EndSplineSet
EndChar

StartChar: Ccedilla
Encoding: 199 199 68
Width: 695
Flags: MW
HStem: -2 132<323.5 411.5 323.5 436.5> 569 132<319 409.5>
VStem: 38 143<288 407 288 437.5>
LayerCount: 2
Fore
SplineSet
549 248 m 1
 665 172 l 1
 613 74 498 -2 375 -2 c 0
 188 -2 38 157 38 350 c 0
 38 525 169 701 375 701 c 0
 490 701 601 634 654 546 c 1
 543 463 l 1
 498 534 444 569 375 569 c 0
 263 569 181 464 181 350 c 0
 181 226 272 130 375 130 c 0
 448 130 505 170 549 248 c 1
425 -67 m 1
 327 -212 l 1
 237 -151 l 1
 336 -6 l 1
 425 -67 l 1
EndSplineSet
EndChar

StartChar: Egrave
Encoding: 200 200 107
Width: 600
Flags: MW
HStem: 0 132<213 555 213 555> 287 132<213 488 213 488> 568 132<213 554 213 213>
VStem: 70 143<132 287 419 568>
LayerCount: 2
Fore
SplineSet
435 815 m 1
 409 730 l 1
 204 810 l 1
 238 924 l 1
 435 815 l 1
70 700 m 1
 554 700 l 1
 554 568 l 1
 213 568 l 1
 213 419 l 1
 488 419 l 1
 488 287 l 1
 213 287 l 1
 213 132 l 1
 555 132 l 1
 555 0 l 1
 70 0 l 1
 70 700 l 1
EndSplineSet
EndChar

StartChar: Eacute
Encoding: 201 201 69
Width: 600
Flags: MW
HStem: 0 132<213 555 213 555> 287 132<213 488 213 488> 568 132<213 554 213 213>
VStem: 70 143<132 287 419 568>
LayerCount: 2
Fore
SplineSet
438 810 m 1
 233 730 l 1
 207 815 l 1
 404 924 l 1
 438 810 l 1
70 700 m 1
 554 700 l 1
 554 568 l 1
 213 568 l 1
 213 419 l 1
 488 419 l 1
 488 287 l 1
 213 287 l 1
 213 132 l 1
 555 132 l 1
 555 0 l 1
 70 0 l 1
 70 700 l 1
EndSplineSet
EndChar

StartChar: Ecircumflex
Encoding: 202 202 104
Width: 600
Flags: MW
HStem: 0 132<213 555 213 555> 287 132<213 488 213 488> 568 132<213 554 213 213>
VStem: 70 143<132 287 419 568>
LayerCount: 2
Fore
SplineSet
315 804 m 1
 164 745 l 1
 138 831 l 1
 315 930 l 1
 492 831 l 1
 466 745 l 1
 315 804 l 1
70 700 m 1
 554 700 l 1
 554 568 l 1
 213 568 l 1
 213 419 l 1
 488 419 l 1
 488 287 l 1
 213 287 l 1
 213 132 l 1
 555 132 l 1
 555 0 l 1
 70 0 l 1
 70 700 l 1
EndSplineSet
EndChar

StartChar: Edieresis
Encoding: 203 203 106
Width: 600
Flags: MW
HStem: 0 132<213 555 213 555> 287 132<213 488 213 488> 568 132<213 554 213 213> 732 138<119.5 158.5 490.5 529.5>
VStem: 70 143<132 287 419 568> 438 143<783 819.5>
LayerCount: 2
Fore
SplineSet
68 801 m 0
 68 838 100 870 139 870 c 0
 178 870 211 838 211 801 c 0
 211 765 178 732 139 732 c 0
 100 732 68 765 68 801 c 0
438 801 m 0
 438 838 471 870 510 870 c 0
 549 870 581 838 581 801 c 0
 581 765 549 732 510 732 c 0
 471 732 438 765 438 801 c 0
70 700 m 1
 554 700 l 1
 554 568 l 1
 213 568 l 1
 213 419 l 1
 488 419 l 1
 488 287 l 1
 213 287 l 1
 213 132 l 1
 555 132 l 1
 555 0 l 1
 70 0 l 1
 70 700 l 1
EndSplineSet
EndChar

StartChar: Igrave
Encoding: 204 204 111
Width: 301
Flags: MW
HStem: 0 924<73 222 73 79>
VStem: 79 143<0 700 0 700>
LayerCount: 2
Fore
SplineSet
271 815 m 1
 245 730 l 1
 40 810 l 1
 73 924 l 1
 271 815 l 1
79 700 m 1
 222 700 l 1
 222 0 l 1
 79 0 l 1
 79 700 l 1
EndSplineSet
EndChar

StartChar: Iacute
Encoding: 205 205 108
Width: 301
Flags: MW
HStem: 0 924<79 240 79 240>
VStem: 79 143<0 700 0 700>
LayerCount: 2
Fore
SplineSet
273 810 m 1
 68 730 l 1
 42 815 l 1
 240 924 l 1
 273 810 l 1
79 700 m 1
 222 700 l 1
 222 0 l 1
 79 0 l 1
 79 700 l 1
EndSplineSet
EndChar

StartChar: Icircumflex
Encoding: 206 206 109
Width: 301
Flags: MW
HStem: 0 930<150 150 150 222 79 150>
VStem: 79 143<0 700 0 700>
LayerCount: 2
Fore
SplineSet
150 804 m 1
 -1 745 l 1
 -27 831 l 1
 150 930 l 1
 327 831 l 1
 301 745 l 1
 150 804 l 1
79 700 m 1
 222 700 l 1
 222 0 l 1
 79 0 l 1
 79 700 l 1
EndSplineSet
EndChar

StartChar: Idieresis
Encoding: 207 207 110
Width: 301
Flags: MW
HStem: 732 138<-44.5 -5.5 325.5 364.5>
VStem: -97 143<783 819.5> 79 143<0 700 0 700> 274 143<783 819.5>
LayerCount: 2
Fore
SplineSet
-97 801 m 0
 -97 838 -64 870 -25 870 c 0
 14 870 46 838 46 801 c 0
 46 765 14 732 -25 732 c 0
 -64 732 -97 765 -97 801 c 0
274 801 m 0
 274 838 306 870 345 870 c 0
 384 870 417 838 417 801 c 0
 417 765 384 732 345 732 c 0
 306 732 274 765 274 801 c 0
79 700 m 1
 222 700 l 1
 222 0 l 1
 79 0 l 1
 79 700 l 1
EndSplineSet
EndChar

StartChar: Eth
Encoding: 208 208 119
Width: 721
Flags: MW
HStem: 0 132<302 327 302 327> 260 130<61 159 61 159 302 425> 568 132<302 322 302 302>
VStem: 159 143<132 132 132 260 132 260 390 568> 537 143<281.5 420>
LayerCount: 2
Fore
SplineSet
159 700 m 1
 322 700 l 2
 571 700 680 548 680 350 c 0
 680 153 564 0 327 0 c 2
 159 0 l 1
 159 260 l 1
 61 260 l 1
 61 390 l 1
 159 390 l 1
 159 700 l 1
302 132 m 1
 327 132 l 2
 473 132 537 213 537 350 c 0
 537 490 478 568 322 568 c 2
 302 568 l 1
 302 390 l 1
 425 390 l 1
 425 260 l 1
 302 260 l 1
 302 132 l 1
EndSplineSet
EndChar

StartChar: Ntilde
Encoding: 209 209 70
Width: 725
Flags: MW
HStem: 756 85.36
VStem: 75 143<0 437> 201.81 85.19 421.5 90.32 506 143<265 700 0 700>
LayerCount: 2
Fore
SplineSet
413 893 m 1xb0
 504 893 l 1
 534 806 472 756 418 756 c 0
 355 756 329 804 300 794 c 0
 287 789 283 766 287 750 c 1
 204 774 l 1
 194 820 217 887 286 887 c 0
 343 887 389 826 415 845 c 0
 429 856 419 879 413 893 c 1xb0
218 0 m 1xc8
 75 0 l 1
 75 700 l 1
 207 700 l 1
 506 265 l 1
 506 700 l 1
 649 700 l 1
 649 0 l 1
 519 0 l 1
 218 437 l 1
 218 0 l 1xc8
EndSplineSet
EndChar

StartChar: Ograve
Encoding: 210 210 114
Width: 798
Flags: MW
HStem: 0 132<341.5 450 341.5 484> 570 132<341 456>
VStem: 45 143<290 411.5 290 446.5> 610 143<282.5 412.5>
LayerCount: 2
Fore
SplineSet
519 817 m 1
 493 732 l 1
 288 812 l 1
 322 926 l 1
 519 817 l 1
399 702 m 0
 595 702 753 545 753 351 c 0
 753 130 569 0 399 0 c 0
 203 0 45 158 45 351 c 0
 45 542 199 702 399 702 c 0
399 570 m 0
 283 570 188 472 188 351 c 0
 188 229 284 132 399 132 c 0
 501 132 610 214 610 351 c 0
 610 474 513 570 399 570 c 0
EndSplineSet
EndChar

StartChar: Otilde
Encoding: 213 213 100
Width: 785
Flags: MW
HStem: 0 132<341.5 450 341.5 484> 570 132<341 456> 758 86.32 796 93
VStem: 45 143<290 411.5 290 446.5> 238.81 85.19 458.5 89.94 610 143<282.5 412.5>
LayerCount: 2
Fore
SplineSet
450 896 m 1xef
 541 896 l 1
 570 808 509 758 454 758 c 0xef
 392 758 366 807 337 796 c 0
 324 792 319 769 324 752 c 1
 241 777 l 1xdf
 231 823 254 889 323 889 c 0
 379 889 426 829 452 848 c 0
 466 858 456 882 450 896 c 1xef
399 702 m 0
 595 702 753 545 753 351 c 0
 753 130 569 0 399 0 c 0
 203 0 45 158 45 351 c 0
 45 542 199 702 399 702 c 0
399 570 m 0
 283 570 188 472 188 351 c 0
 188 229 284 132 399 132 c 0
 501 132 610 214 610 351 c 0
 610 474 513 570 399 570 c 0
EndSplineSet
EndChar

StartChar: Odieresis
Encoding: 214 214 71
Width: 798
Flags: MW
HStem: 0 132<341.5 450 341.5 484> 570 132<341 456> 722 138<99.5 138.5 652 690.5>
VStem: 45 143<290 411.5 290 446.5> 48 143<773 809> 600 143<773 809> 610 143<282.5 412.5>
LayerCount: 2
Fore
SplineSet
48 791 m 0xec
 48 827 80 860 119 860 c 0
 158 860 191 827 191 791 c 0
 191 755 158 722 119 722 c 0
 80 722 48 755 48 791 c 0xec
600 791 m 0
 600 827 633 860 671 860 c 0
 710 860 743 827 743 791 c 0
 743 755 710 722 671 722 c 0
 633 722 600 755 600 791 c 0
399 702 m 0xd2
 595 702 753 545 753 351 c 0
 753 130 569 0 399 0 c 0
 203 0 45 158 45 351 c 0
 45 542 199 702 399 702 c 0xd2
399 570 m 0
 283 570 188 472 188 351 c 0
 188 229 284 132 399 132 c 0
 501 132 610 214 610 351 c 0
 610 474 513 570 399 570 c 0
EndSplineSet
EndChar

StartChar: multiply
Encoding: 215 215 208
Width: 651
Flags: MW
HStem: -46 621<113 539>
VStem: 11 629<47 482>
LayerCount: 2
Fore
SplineSet
113 575 m 1
 640 47 l 1
 539 -46 l 1
 11 482 l 1
 113 575 l 1
EndSplineSet
EndChar

StartChar: Oslash
Encoding: 216 216 120
Width: 798
Flags: MW
HStem: 0 132<399 450 399 484> 570 132<392 392>
VStem: 45 143<314.5 410.5 314.5 446.5> 610 143<282.5 391.5>
LayerCount: 2
Fore
SplineSet
568 750 m 1
 545 671 l 1
 668 616 753 493 753 351 c 0
 753 130 569 0 399 0 c 0
 380 0 362 2 344 4 c 1
 320 -78 l 1
 208 -44 l 1
 233 41 l 1
 121 100 45 217 45 351 c 0
 45 542 199 702 399 702 c 0
 410 702 421 702 431 701 c 1
 457 786 l 1
 568 750 l 1
274 175 m 1
 392 570 l 1
 279 566 188 470 188 351 c 0
 188 278 222 215 274 175 c 1
383 133 m 1
 399 132 l 1
 501 132 610 214 610 351 c 0
 610 432 567 502 505 540 c 1
 383 133 l 1
EndSplineSet
EndChar

StartChar: Uacute
Encoding: 218 218 115
Width: 671
Flags: MW
HStem: -9 132<336 350 336 353 333 350>
VStem: 67 143<278 699> 476 143<279 699 279 699 279 699>
LayerCount: 2
Fore
SplineSet
464 810 m 1
 259 730 l 1
 233 815 l 1
 430 924 l 1
 464 810 l 1
210 699 m 1
 210 274 l 2
 210 249 215 129 336 123 c 1
 350 123 l 1
 455 128 472 219 476 260 c 1
 476 699 l 1
 619 699 l 1
 619 279 l 1
 619 279 629 1 353 -9 c 1
 333 -9 l 1
 56 1 67 279 67 278 c 2
 67 699 l 1
 210 699 l 1
EndSplineSet
EndChar

StartChar: Udieresis
Encoding: 220 220 72
Width: 671
Flags: MW
HStem: -9 132<336 350 336 353 333 350> 732 138<146 184.5 516.5 555.5>
VStem: 67 143<278 699> 94 143<783 819.5> 464 143<783 819.5> 476 143<279 699 279 699 279 699>
LayerCount: 2
Fore
SplineSet
94 801 m 0xe4
 94 838 127 870 165 870 c 0
 204 870 237 838 237 801 c 0xd4
 237 765 204 732 165 732 c 0
 127 732 94 765 94 801 c 0xe4
464 801 m 0xe8
 464 838 497 870 536 870 c 0
 575 870 607 838 607 801 c 0xe4
 607 765 575 732 536 732 c 0
 497 732 464 765 464 801 c 0xe8
210 699 m 1xe4
 210 274 l 2
 210 249 215 129 336 123 c 1
 350 123 l 1
 455 128 472 219 476 260 c 1
 476 699 l 1
 619 699 l 1
 619 279 l 1
 619 279 629 1 353 -9 c 1
 333 -9 l 1
 56 1 67 279 67 278 c 2
 67 699 l 1
 210 699 l 1xe4
EndSplineSet
EndChar

StartChar: Yacute
Encoding: 221 221 5
Width: 738
Flags: MW
HStem: 0 924<298 458 298 458>
VStem: 298 142<0 328 0 328>
LayerCount: 2
Fore
SplineSet
492 810 m 1
 287 730 l 1
 261 815 l 1
 458 924 l 1
 492 810 l 1
553 700 m 1
 729 700 l 1
 440 328 l 1
 440 0 l 1
 298 0 l 1
 298 328 l 1
 9 700 l 1
 185 700 l 1
 369 463 l 1
 553 700 l 1
EndSplineSet
EndChar

StartChar: Thorn
Encoding: 222 222 122
Width: 600
Flags: MW
HStem: 146 133<201 328 201 328> 475 133<201 328 201 328>
VStem: 58 143<0 146 279 475 608 694> 421 143<349 391.5>
LayerCount: 2
Fore
SplineSet
201 608 m 1
 328 608 l 2
 390 608 458 577 495 540 c 0
 535 500 564 436 564 377 c 0
 564 251 459 146 328 146 c 2
 201 146 l 1
 201 0 l 1
 58 0 l 1
 58 694 l 1
 201 694 l 1
 201 608 l 1
201 279 m 1
 328 279 l 2
 379 279 421 321 421 377 c 0
 421 406 410 430 394 447 c 1
 374 466 353 475 328 475 c 2
 201 475 l 1
 201 279 l 1
EndSplineSet
EndChar

StartChar: germandbls
Encoding: 223 223 129
Width: 600
Flags: MW
HStem: 1 138<363 394.5 363 434> 306 138<297 311 297 363 297 311> 588 138<235 313>
VStem: 49 143<1 495 1 536> 371 143<499 532.5> 453 143<199.5 248>
LayerCount: 2
Fore
SplineSet
49 1 m 1xf8
 49 495 l 2
 49 577 62 726 274 726 c 0
 473 726 514 578 514 514 c 0xf8
 514 484 506 447 488 412 c 1
 553 374 596 303 596 223 c 0
 596 101 496 1 372 1 c 0
 315 1 253 27 226 58 c 1
 330 151 l 1
 346 142 354 139 372 139 c 0
 417 139 453 176 453 223 c 0
 453 273 427 306 363 306 c 2xf4
 297 306 l 1
 297 444 l 1
 311 444 l 1
 348 445 371 480 371 514 c 0
 371 551 352 588 274 588 c 0
 196 588 192 537 192 495 c 2
 192 1 l 1
 49 1 l 1xf8
EndSplineSet
EndChar

StartChar: acircumflex
Encoding: 226 226 75
Width: 506
Flags: MW
HStem: -5 126<198.5 242.5> 220 99<232 254.5 186 272.5> 392 117<239.5 281.5>
VStem: 37 127<151 182.5 151 216> 324 137<0 36 36 36 308 319 0 340>
LayerCount: 2
Fore
SplineSet
252 612 m 1
 101 553 l 1
 75 639 l 1
 252 738 l 1
 429 639 l 1
 403 553 l 1
 252 612 l 1
159 323 m 1
 66 407 l 1
 103 459 165 509 262 509 c 0
 371 509 461 434 461 319 c 2
 461 0 l 1
 324 0 l 1
 324 36 l 1
 306 15 272 -5 213 -5 c 0
 91 -5 37 82 37 153 c 0
 37 279 133 319 239 319 c 0
 270 319 302 314 324 308 c 1
 324 319 l 2
 324 361 301 392 262 392 c 0
 217 392 188 365 159 323 c 1
263 220 m 0
 201 220 164 204 164 161 c 0
 164 141 180 121 217 121 c 0
 281 121 320 158 324 212 c 1
 306 217 282 220 263 220 c 0
EndSplineSet
EndChar

StartChar: atilde
Encoding: 227 227 77
Width: 506
Flags: MW
HStem: -5 126<198.5 242.5> 220 99<232 254.5 186 272.5> 392 117<239.5 281.5> 564 85.36
VStem: 37 127<151 182.5 151 216> 92.48 83.45 311.5 90.85 324 137<0 36 36 36 308 319 0 340>
LayerCount: 2
Fore
SplineSet
303 702 m 1xf6
 395 702 l 1
 424 614 362 564 308 564 c 0
 245 564 220 612 190 602 c 0
 177 597 173 574 178 558 c 1
 95 582 l 1
 84 628 107 695 177 695 c 0
 233 695 279 634 305 653 c 0
 319 664 309 687 303 702 c 1xf6
159 323 m 1
 66 407 l 1
 103 459 165 509 262 509 c 0
 371 509 461 434 461 319 c 2
 461 0 l 1
 324 0 l 1
 324 36 l 1
 306 15 272 -5 213 -5 c 0
 91 -5 37 82 37 153 c 0xf9
 37 279 133 319 239 319 c 0
 270 319 302 314 324 308 c 1
 324 319 l 2
 324 361 301 392 262 392 c 0xf5
 217 392 188 365 159 323 c 1
263 220 m 0
 201 220 164 204 164 161 c 0
 164 141 180 121 217 121 c 0
 281 121 320 158 324 212 c 1
 306 217 282 220 263 220 c 0
EndSplineSet
EndChar

StartChar: adieresis
Encoding: 228 228 76
Width: 506
Flags: MW
HStem: -5 126<198.5 242.5> 220 99<232 254.5 186 272.5> 392 117<239.5 281.5> 540 138<57.5 96.5 427.5 466.5>
VStem: 5 143<591 627.5> 37 127<151 182.5 151 216> 324 137<0 36 36 36 308 319 0 340> 376 143<591 627.5>
LayerCount: 2
Fore
SplineSet
5 609 m 0xfa
 5 646 38 678 77 678 c 0
 116 678 148 646 148 609 c 0
 148 573 116 540 77 540 c 0
 38 540 5 573 5 609 c 0xfa
376 609 m 0xf9
 376 646 408 678 447 678 c 0
 486 678 519 646 519 609 c 0
 519 573 486 540 447 540 c 0
 408 540 376 573 376 609 c 0xf9
159 323 m 1
 66 407 l 1
 103 459 165 509 262 509 c 0
 371 509 461 434 461 319 c 2
 461 0 l 1
 324 0 l 1
 324 36 l 1
 306 15 272 -5 213 -5 c 0
 91 -5 37 82 37 153 c 0
 37 279 133 319 239 319 c 0
 270 319 302 314 324 308 c 1
 324 319 l 2
 324 361 301 392 262 392 c 0xf6
 217 392 188 365 159 323 c 1
263 220 m 0
 201 220 164 204 164 161 c 0
 164 141 180 121 217 121 c 0
 281 121 320 158 324 212 c 1
 306 217 282 220 263 220 c 0
EndSplineSet
EndChar

StartChar: aring
Encoding: 229 229 78
Width: 506
Flags: MW
HStem: -5 126<198.5 242.5> 220 99<232 254.5 186 272.5> 392 172<239.5 265 239.5 281.5> 665 82<239.5 265>
VStem: 37 127<151 182.5 151 216> 117 88<600 628.5 600 650.5> 300 87<600 628.5> 324 137<0 36 36 36 308 319 0 340>
LayerCount: 2
Fore
SplineSet
159 323 m 1xf9
 66 407 l 1
 92 444 131 480 187 498 c 1
 145 520 117 564 117 614 c 0
 117 687 177 747 252 747 c 0
 327 747 387 687 387 614 c 0xf6
 387 566 362 524 323 501 c 1
 402 478 461 412 461 319 c 2
 461 0 l 1
 324 0 l 1
 324 36 l 1
 306 15 272 -5 213 -5 c 0
 91 -5 37 82 37 153 c 0
 37 279 133 319 239 319 c 0
 270 319 302 314 324 308 c 1
 324 319 l 2
 324 361 301 392 262 392 c 0
 217 392 188 365 159 323 c 1xf9
252 665 m 0
 227 665 205 643 205 614 c 0
 205 586 227 564 252 564 c 0
 278 564 300 586 300 614 c 0
 300 643 278 665 252 665 c 0
217 121 m 0xf9
 281 121 320 158 324 212 c 1
 306 217 282 220 263 220 c 0
 201 220 164 204 164 161 c 0
 164 141 180 121 217 121 c 0xf9
EndSplineSet
EndChar

StartChar: ae
Encoding: 230 230 123
Width: 890
Flags: MW
HStem: -11 123<592.5 656 592.5 679.5> -5 126<188.5 234.5> 216 101 219 108<521 713 521 837 508 713> 389 119<229.5 271.5> 402 111<598 651.5>
VStem: 27 127<151 182.5 151 223> 314 194<183 212 183 318 183 339> 713 130.08
LayerCount: 2
Fore
SplineSet
837 219 m 1x9780
 508 219 l 1
 508 147 558 112 627 112 c 0
 685 112 725 147 739 191 c 1
 842 107 l 1
 803 40 732 -11 627 -11 c 0x9780
 525 -11 454 36 413 101 c 1
 390 70 362 44 332 26 c 0
 301 8 266 -5 203 -5 c 0
 81 -5 27 82 27 153 c 0
 27 293 147 327 266 317 c 0
 285 316 300 314 314 311 c 1
 314 318 l 2
 314 360 291 389 252 389 c 0
 207 389 178 364 149 323 c 1
 56 406 l 1
 93 458 155 508 252 508 c 0x6b80
 325 508 390 474 425 417 c 1
 467 473 534 513 626 513 c 0
 699 513 757 484 795 437 c 0
 834 390 854 329 837 219 c 1x9780
521 327 m 1
 713 327 l 1
 716 359 677 402 626 402 c 0
 570 402 532 369 521 327 c 1
207 121 m 0x6780
 271 121 314 154 314 212 c 1
 300 214 272 216 253 216 c 0
 191 216 154 204 154 161 c 0
 154 141 170 121 207 121 c 0x6780
EndSplineSet
EndChar

StartChar: ccedilla
Encoding: 231 231 79
Width: 514
Flags: MW
HStem: -9 126<291 320 262 341> 388 127<261.5 318>
VStem: 32 137<214.5 289.5 214.5 322>
LayerCount: 2
Fore
SplineSet
413 191 m 1
 515 108 l 1
 475 42 386 -9 296 -9 c 0
 286 -9 277 -8 268 -7 c 1
 349 -62 l 1
 250 -207 l 1
 161 -146 l 1
 256 -6 l 1
 129 13 32 122 32 253 c 0
 32 391 145 515 296 515 c 0
 380 515 464 470 504 413 c 1
 408 322 l 1
 383 368 340 388 296 388 c 0
 227 388 169 326 169 253 c 0
 169 176 228 117 296 117 c 0
 344 117 388 140 413 191 c 1
EndSplineSet
EndChar

StartChar: eacute
Encoding: 233 233 80
Width: 555
Flags: MW
HStem: -11 123<255.5 319.5 255.5 342.5> 219 108<184 377 184 501 172 377> 402 111<261 315>
VStem: 35 137<187 219 183 315> 377 129.53
LayerCount: 2
Fore
SplineSet
412 623 m 1
 207 542 l 1
 181 628 l 1
 379 737 l 1
 412 623 l 1
402 191 m 1
 506 107 l 1
 466 40 395 -11 290 -11 c 0
 118 -11 35 123 35 251 c 0
 35 379 120 513 289 513 c 0
 363 513 421 483 459 437 c 0
 497 390 517 329 501 219 c 1
 172 219 l 1
 172 147 221 112 290 112 c 0
 349 112 389 147 402 191 c 1
184 327 m 1
 377 327 l 1
 380 359 341 402 289 402 c 0
 233 402 196 369 184 327 c 1
EndSplineSet
EndChar

StartChar: ecircumflex
Encoding: 234 234 82
Width: 555
Flags: MW
HStem: -11 123<255.5 319.5 255.5 342.5> 219 108<184 377 184 501 172 377> 402 111<261 315>
VStem: 35 137<187 219 183 315> 377 129.53
LayerCount: 2
Fore
SplineSet
289 617 m 1
 138 558 l 1
 112 643 l 1
 289 743 l 1
 466 643 l 1
 440 558 l 1
 289 617 l 1
402 191 m 1
 506 107 l 1
 466 40 395 -11 290 -11 c 0
 118 -11 35 123 35 251 c 0
 35 379 120 513 289 513 c 0
 363 513 421 483 459 437 c 0
 497 390 517 329 501 219 c 1
 172 219 l 1
 172 147 221 112 290 112 c 0
 349 112 389 147 402 191 c 1
184 327 m 1
 377 327 l 1
 380 359 341 402 289 402 c 0
 233 402 196 369 184 327 c 1
EndSplineSet
EndChar

StartChar: edieresis
Encoding: 235 235 83
Width: 555
Flags: MW
HStem: -11 123<255.5 319.5 255.5 342.5> 219 108<184 377 184 501 172 377> 402 111<261 315> 545 138<94.5 133.5 464.5 503.5>
VStem: 35 137<187 219 183 315> 42 143<596 632> 377 129.53 413 143<596 632>
LayerCount: 2
Fore
SplineSet
42 614 m 0xf5
 42 650 75 683 114 683 c 0
 153 683 185 650 185 614 c 0
 185 578 153 545 114 545 c 0
 75 545 42 578 42 614 c 0xf5
413 614 m 0
 413 650 445 683 484 683 c 0
 523 683 556 650 556 614 c 0
 556 578 523 545 484 545 c 0
 445 545 413 578 413 614 c 0
402 191 m 1
 506 107 l 1
 466 40 395 -11 290 -11 c 0
 118 -11 35 123 35 251 c 0
 35 379 120 513 289 513 c 0
 363 513 421 483 459 437 c 0
 497 390 517 329 501 219 c 1
 172 219 l 1xfa
 172 147 221 112 290 112 c 0
 349 112 389 147 402 191 c 1
184 327 m 1
 377 327 l 1
 380 359 341 402 289 402 c 0
 233 402 196 369 184 327 c 1
EndSplineSet
EndChar

StartChar: igrave
Encoding: 236 236 85
Width: 273
Flags: MW
HStem: 0 729<53 64 53 201>
VStem: 64 137<0 506 0 506>
LayerCount: 2
Fore
SplineSet
250 620 m 1
 224 534 l 1
 19 615 l 1
 53 729 l 1
 250 620 l 1
64 0 m 1
 64 506 l 1
 201 506 l 1
 201 0 l 1
 64 0 l 1
EndSplineSet
EndChar

StartChar: iacute
Encoding: 237 237 84
Width: 273
Flags: MW
HStem: 0 729<64 219 64 219>
VStem: 64 137<0 506 0 506>
LayerCount: 2
Fore
SplineSet
253 615 m 1
 48 534 l 1
 22 620 l 1
 219 729 l 1
 253 615 l 1
64 0 m 1
 64 506 l 1
 201 506 l 1
 201 0 l 1
 64 0 l 1
EndSplineSet
EndChar

StartChar: icircumflex
Encoding: 238 238 86
Width: 273
Flags: MW
HStem: 0 735<64 130 130 130 130 201>
VStem: 64 137<0 506 0 506>
LayerCount: 2
Fore
SplineSet
130 609 m 1
 -21 550 l 1
 -47 635 l 1
 130 735 l 1
 307 635 l 1
 281 550 l 1
 130 609 l 1
64 0 m 1
 64 506 l 1
 201 506 l 1
 201 0 l 1
 64 0 l 1
EndSplineSet
EndChar

StartChar: idieresis
Encoding: 239 239 87
Width: 273
Flags: MW
HStem: 546 138<-1.5 37.5 226.5 265.5>
VStem: -54 143<596.5 633> 64 137<0 506 0 506> 174 143<596.5 633>
LayerCount: 2
Fore
SplineSet
-54 615 m 0xd0
 -54 651 -21 684 18 684 c 0
 57 684 89 651 89 615 c 0
 89 578 57 546 18 546 c 0
 -21 546 -54 578 -54 615 c 0xd0
174 615 m 0
 174 651 207 684 246 684 c 0
 285 684 317 651 317 615 c 0
 317 578 285 546 246 546 c 0
 207 546 174 578 174 615 c 0
64 0 m 1xa0
 64 506 l 1
 201 506 l 1
 201 0 l 1
 64 0 l 1xa0
EndSplineSet
EndChar

StartChar: eth
Encoding: 240 240 124
Width: 600
Flags: MW
HStem: -3 133<276 302.5 276 324.5> 366 132<294 304 294 311.5> 607.13 129.87
VStem: 74 143<212.5 267 212.5 281> 371 142<246 248 248 249 249 249>
LayerCount: 2
Fore
SplineSet
413 728 m 1
 349 655 l 1
 460 564 518 412 513 261 c 1
 513 248 l 2
 513 184 490 120 454 76 c 0
 417 31 355 -3 294 -3 c 0
 170 -3 74 112 74 248 c 0
 74 314 100 381 139 425 c 0
 175 467 235 498 294 498 c 2
 304 498 l 1
 291 518 275 536 258 551 c 1
 216 502 l 1
 135 572 l 1
 161 602 l 1
 133 608 103 609 71 604 c 1
 71 737 l 1
 140 744 202 733 256 711 c 1
 331 798 l 1
 413 728 l 1
371 246 m 1
 371 249 l 1
 370 319 329 366 294 366 c 0
 277 366 265 360 246 338 c 0
 230 319 217 286 217 248 c 0
 217 177 258 130 294 130 c 0
 311 130 324 136 343 160 c 0
 359 180 370 209 371 246 c 1
EndSplineSet
EndChar

StartChar: ntilde
Encoding: 241 241 88
Width: 561
Flags: MW
HStem: 385 126<274 315> 566 86.32
VStem: 57 137<0 324 481 505> 133.81 85.19 353.5 89.94 374 137<0 297 0 324.5>
LayerCount: 2
Fore
SplineSet
345 704 m 1xd8
 436 704 l 1
 465 616 404 566 350 566 c 0
 287 566 261 615 232 605 c 0
 219 600 215 577 219 560 c 1
 136 585 l 1
 126 631 149 697 218 697 c 0
 274 697 321 637 347 656 c 0
 361 666 351 690 345 704 c 1xd8
194 505 m 1xe4
 194 481 l 1
 221 500 254 511 294 511 c 0
 424 511 511 418 511 297 c 2
 511 0 l 1
 374 0 l 1
 374 297 l 2
 374 352 341 385 289 385 c 0
 252 385 214 365 194 324 c 1
 194 0 l 1
 57 0 l 1
 57 505 l 1
 194 505 l 1xe4
EndSplineSet
EndChar

StartChar: otilde
Encoding: 245 245 93
Width: 591
Flags: MW
HStem: -8 128<262 328 262 367.5> 382 128<262.5 328> 564 86.32
VStem: 35 137<214 288 214 322.5> 134.81 85.19 354.5 89.94 418 137<214.5 288>
LayerCount: 2
Fore
SplineSet
346 702 m 1xf4
 437 702 l 1
 466 615 405 564 351 564 c 0
 288 564 262 613 233 603 c 0
 220 598 216 575 220 558 c 1
 137 583 l 1
 127 629 150 695 219 695 c 0xec
 275 695 322 635 348 654 c 0
 362 664 352 688 346 702 c 1xf4
555 251 m 0xf2
 555 110 440 -8 295 -8 c 0
 150 -8 35 109 35 251 c 0
 35 394 152 510 295 510 c 0
 439 510 555 393 555 251 c 0xf2
418 251 m 0
 418 325 361 382 295 382 c 0
 230 382 172 325 172 251 c 0
 172 177 229 120 295 120 c 0
 361 120 418 178 418 251 c 0
EndSplineSet
EndChar

StartChar: odieresis
Encoding: 246 246 92
Width: 591
Flags: MW
HStem: -8 128<262 328 262 367.5> 382 128<262.5 328> 541 138<99.5 138.5 470.5 509.5>
VStem: 35 137<214 288 214 322.5> 48 143<592 628> 418 137<214.5 288> 418 143<592 628>
LayerCount: 2
Fore
SplineSet
48 610 m 0xea
 48 646 80 679 119 679 c 0
 158 679 191 646 191 610 c 0
 191 574 158 541 119 541 c 0
 80 541 48 574 48 610 c 0xea
418 610 m 0
 418 646 451 679 490 679 c 0
 529 679 561 646 561 610 c 0
 561 574 529 541 490 541 c 0
 451 541 418 574 418 610 c 0
555 251 m 0xf4
 555 110 440 -8 295 -8 c 0
 150 -8 35 109 35 251 c 0
 35 394 152 510 295 510 c 0
 439 510 555 393 555 251 c 0xf4
418 251 m 0
 418 325 361 382 295 382 c 0
 230 382 172 325 172 251 c 0
 172 177 229 120 295 120 c 0
 361 120 418 178 418 251 c 0
EndSplineSet
EndChar

StartChar: divide
Encoding: 247 247 198
Width: 600
Flags: MW
HStem: -31 187<273 327> 241 132<25 587 25 587> 427 187<273 327>
VStem: 204 192<37 88.5 494.5 546>
LayerCount: 2
Fore
SplineSet
300 427 m 0
 246 427 204 469 204 520 c 0
 204 572 246 614 300 614 c 0
 354 614 396 572 396 520 c 0
 396 469 354 427 300 427 c 0
587 241 m 1
 25 241 l 1
 25 373 l 1
 587 373 l 1
 587 241 l 1
300 -31 m 0
 246 -31 204 11 204 63 c 0
 204 114 246 156 300 156 c 0
 354 156 396 114 396 63 c 0
 396 11 354 -31 300 -31 c 0
EndSplineSet
EndChar

StartChar: oslash
Encoding: 248 248 126
Width: 591
Flags: MW
HStem: -126 783<233 368> 381 129<279 279>
VStem: 35 137<233 285 233 322.5> 418 137<218 268.5>
LayerCount: 2
Fore
SplineSet
476 623 m 1xb0
 428 474 l 1
 504 429 555 345 555 251 c 0
 555 110 440 -8 295 -8 c 0
 287 -8 280 -8 272 -7 c 1
 233 -126 l 1
 125 -95 l 1
 164 27 l 1
 87 72 35 156 35 251 c 0
 35 394 152 510 295 510 c 0
 303 510 312 509 320 508 c 1x70
 368 657 l 1
 476 623 l 1xb0
207 159 m 1
 279 381 l 1
 220 373 172 319 172 251 c 0
 172 215 186 183 207 159 c 1
385 341 m 1
 313 121 l 1
 371 131 418 185 418 251 c 0
 418 286 405 317 385 341 c 1
EndSplineSet
EndChar

StartChar: uacute
Encoding: 250 250 94
Width: 569
Flags: MW
HStem: -5 126<252.5 293.5>
VStem: 63 137<228 506> 368 137<0 22 22 22 197 506 0 506>
LayerCount: 2
Fore
SplineSet
406 616 m 1
 201 536 l 1
 175 622 l 1
 373 731 l 1
 406 616 l 1
368 0 m 1
 368 22 l 1
 342 5 311 -5 276 -5 c 0
 147 -5 63 86 63 228 c 2
 63 506 l 1
 200 506 l 1
 200 228 l 2
 200 153 226 121 279 121 c 0
 325 121 360 159 368 197 c 1
 368 506 l 1
 505 506 l 1
 505 0 l 1
 368 0 l 1
EndSplineSet
EndChar

StartChar: udieresis
Encoding: 252 252 97
Width: 568
Flags: MW
HStem: -5 126<247.5 288.5> 539 138<83.5 122.5 453.5 492.5>
VStem: 31 143<589.5 626> 58 137<228 506> 363 137<0 22 22 22 197 506 0 506> 402 143<589.5 626>
LayerCount: 2
Fore
SplineSet
31 608 m 0xe8
 31 644 64 677 103 677 c 0
 142 677 174 644 174 608 c 0xd8
 174 571 142 539 103 539 c 0
 64 539 31 571 31 608 c 0xe8
402 608 m 0xd8
 402 644 434 677 473 677 c 0
 512 677 545 644 545 608 c 0xd4
 545 571 512 539 473 539 c 0
 434 539 402 571 402 608 c 0xd8
363 0 m 1
 363 22 l 1
 337 5 306 -5 271 -5 c 0
 142 -5 58 86 58 228 c 2
 58 506 l 1
 195 506 l 1
 195 228 l 2
 195 153 221 121 274 121 c 0
 320 121 355 159 363 197 c 1
 363 506 l 1
 500 506 l 1
 500 0 l 1
 363 0 l 1
EndSplineSet
EndChar

StartChar: yacute
Encoding: 253 253 6
Width: 653
Flags: MW
HStem: -186 910<93 417 93 417>
VStem: 9 638<506 506>
LayerCount: 2
Fore
SplineSet
450 610 m 1
 245 530 l 1
 219 615 l 1
 417 724 l 1
 450 610 l 1
252 86 m 1
 9 506 l 1
 166 506 l 1
 330 219 l 1
 492 506 l 1
 647 506 l 1
 249 -186 l 1
 93 -186 l 1
 252 86 l 1
EndSplineSet
EndChar

StartChar: thorn
Encoding: 254 254 128
Width: 580
Flags: MW
HStem: -19 137<266.5 316 261.5 358> 376 137<267 316>
VStem: 56 143<-247 -6 153 328 497 724> 402 143<210 282.5>
LayerCount: 2
Fore
SplineSet
199 724 m 1
 199 497 l 1
 224 508 252 513 282 513 c 0
 434 513 545 389 545 246 c 0
 545 103 434 -19 282 -19 c 0
 251 -19 223 -14 199 -6 c 1
 199 -247 l 1
 56 -247 l 1
 56 724 l 1
 199 724 l 1
199 328 m 1
 199 153 l 1
 205 144 241 118 282 118 c 0
 350 118 402 174 402 246 c 0
 402 319 350 376 282 376 c 0
 248 376 219 358 199 328 c 1
EndSplineSet
EndChar

StartChar: ydieresis
Encoding: 255 255 101
Width: 653
Flags: MW
HStem: 532 138<132.5 171.5 502.5 541.5>
VStem: 80 143<583 619.5> 451 143<583 619.5>
LayerCount: 2
Fore
SplineSet
80 601 m 0
 80 638 113 670 152 670 c 0
 191 670 223 638 223 601 c 0
 223 565 191 532 152 532 c 0
 113 532 80 565 80 601 c 0
451 601 m 0
 451 638 483 670 522 670 c 0
 561 670 594 638 594 601 c 0
 594 565 561 532 522 532 c 0
 483 532 451 565 451 601 c 0
9 506 m 1
 166 506 l 1
 330 219 l 1
 492 506 l 1
 647 506 l 1
 249 -186 l 1
 93 -186 l 1
 252 86 l 1
 9 506 l 1
EndSplineSet
EndChar

StartChar: dotlessi
Encoding: 305 305 125
Width: 273
Flags: MW
HStem: 0 506<64 201 64 201>
VStem: 64 137<0 506 0 506>
LayerCount: 2
Fore
SplineSet
64 0 m 1
 64 506 l 1
 201 506 l 1
 201 0 l 1
 64 0 l 1
EndSplineSet
EndChar

StartChar: Lslash
Encoding: 321 321 9
Width: 486
Flags: MW
HStem: 0 132<257 504 257 504>
VStem: 114 143<132 291 291 291 499 700>
LayerCount: 2
Fore
SplineSet
114 0 m 1
 114 291 l 1
 12 245 l 1
 12 391 l 1
 114 436 l 1
 114 700 l 1
 257 700 l 1
 257 499 l 1
 384 555 l 1
 382 409 l 1
 257 353 l 1
 257 132 l 1
 504 132 l 1
 504 0 l 1
 114 0 l 1
EndSplineSet
EndChar

StartChar: lslash
Encoding: 322 322 2
Width: 355
Flags: MW
HStem: 0 700<112 250 112 250>
VStem: 112 138<0 295 295 295 476 700>
LayerCount: 2
Fore
SplineSet
112 0 m 1
 112 295 l 1
 65 273 l 1
 19 369 l 1
 112 412 l 1
 112 700 l 1
 250 700 l 1
 250 476 l 1
 304 501 l 1
 350 405 l 1
 250 359 l 1
 250 0 l 1
 112 0 l 1
EndSplineSet
EndChar

StartChar: OE
Encoding: 338 338 121
Width: 1045
Flags: MW
HStem: 0 132<658 1000 658 1000> 287 132<658 933 658 933> 558 144<320 402.5> 568 132<658 999 658 658>
VStem: 36 138<293.5 407.5 293.5 446.5> 515 143<0 287 24 287 200 287 419 501 501 501>
LayerCount: 2
Fore
SplineSet
515 0 m 1xdc
 515 24 l 1
 474 8 430 0 387 0 c 0
 193 0 36 157 36 351 c 0
 36 542 190 702 387 702 c 0
 432 702 475 694 515 679 c 1xec
 515 700 l 1
 999 700 l 1
 999 568 l 1
 658 568 l 1
 658 419 l 1
 933 419 l 1
 933 287 l 1
 658 287 l 1
 658 132 l 1
 1000 132 l 1
 1000 0 l 1
 515 0 l 1xdc
515 200 m 1
 515 501 l 1
 479 536 429 558 376 558 c 0
 264 558 174 464 174 351 c 0
 174 236 266 145 376 145 c 0
 425 145 476 164 515 200 c 1
EndSplineSet
EndChar

StartChar: oe
Encoding: 339 339 127
Width: 1003
Flags: MW
HStem: -11 123<703.5 767.5 703.5 790.5> -8 128<262 328 262 342> 219 108<632 825 632 949 620 825> 382 128<262.5 328> 402 111<709 763>
VStem: 35 137<214 288 214 322.5> 418 202<214.5 219 183 288> 825 129.53
LayerCount: 2
Fore
SplineSet
949 219 m 1x77
 620 219 l 1
 620 147 669 112 738 112 c 0
 797 112 837 147 850 191 c 1
 954 107 l 1
 914 40 843 -11 738 -11 c 0xaf
 629 -11 556 43 516 115 c 1
 471 42 389 -8 295 -8 c 0
 150 -8 35 109 35 251 c 0
 35 394 152 510 295 510 c 0x77
 389 510 471 460 517 387 c 1
 556 459 629 513 737 513 c 0
 811 513 869 483 907 437 c 0x6f
 945 390 965 329 949 219 c 1x77
632 327 m 1
 825 327 l 1
 828 359 789 402 737 402 c 0
 681 402 644 369 632 327 c 1
295 120 m 0x77
 361 120 418 178 418 251 c 0
 418 325 361 382 295 382 c 0
 230 382 172 325 172 251 c 0
 172 177 229 120 295 120 c 0x77
EndSplineSet
EndChar

StartChar: Scaron
Encoding: 352 352 3
Width: 521
Flags: MW
HStem: -2 133<212 280 212 307> 573 132<235 284>
VStem: 47 143<496 531 496 569> 350 142<204 234>
LayerCount: 2
Fore
SplineSet
72 910 m 1
 243 851 l 1
 414 910 l 1
 440 825 l 1
 243 726 l 1
 46 825 l 1
 72 910 l 1
470 595 m 1
 372 505 l 1
 340 542 315 573 253 573 c 0
 217 573 190 549 190 513 c 0
 190 479 215 464 281 437 c 0
 379 397 492 353 492 204 c 1
 493 65 367 -2 247 -2 c 0
 112 -2 11 96 6 128 c 1
 110 213 l 1
 137 171 177 131 247 131 c 0
 313 131 350 156 350 204 c 0
 350 264 306 282 227 315 c 0
 155 344 47 393 47 513 c 0
 47 625 145 705 253 705 c 0
 365 705 428 653 470 595 c 1
EndSplineSet
EndChar

StartChar: scaron
Encoding: 353 353 4
Width: 431
Flags: MW
HStem: -4 123<191 233.5 191 258.5> 392 116
VStem: 42 137 277 127<145.5 170>
LayerCount: 2
Fore
SplineSet
49 719 m 1
 220 660 l 1
 391 719 l 1
 417 633 l 1
 220 534 l 1
 23 633 l 1
 49 719 l 1
373 428 m 1
 279 343 l 1
 258 372 237 390 209 392 c 1
 189 392 179 380 179 368 c 0
 179 354 185 348 238 330 c 0
 274 317 404 289 404 157 c 0
 404 44 302 -4 215 -4 c 0
 110 -4 52 53 13 96 c 1
 108 185 l 1
 141 140 167 119 215 119 c 0
 252 119 277 134 277 157 c 0
 277 183 246 193 212 203 c 1
 141 229 47 255 42 354 c 0
 38 442 119 513 216 508 c 0
 281 504 333 473 373 428 c 1
EndSplineSet
EndChar

StartChar: Ydieresis
Encoding: 376 376 102
Width: 738
Flags: MW
HStem: 732 138<173.5 212.5 544.5 583.5>
VStem: 122 143<783 819.5> 298 142<0 328 0 328> 492 143<783 819.5>
LayerCount: 2
Fore
SplineSet
122 801 m 0
 122 838 154 870 193 870 c 0
 232 870 265 838 265 801 c 0
 265 765 232 732 193 732 c 0
 154 732 122 765 122 801 c 0
492 801 m 0
 492 838 525 870 564 870 c 0
 603 870 635 838 635 801 c 0
 635 765 603 732 564 732 c 0
 525 732 492 765 492 801 c 0
729 700 m 1
 440 328 l 1
 440 0 l 1
 298 0 l 1
 298 328 l 1
 9 700 l 1
 185 700 l 1
 369 463 l 1
 553 700 l 1
 729 700 l 1
EndSplineSet
EndChar

StartChar: Zcaron
Encoding: 381 381 7
Width: 696
Flags: MW
HStem: 0 132<274 643 274 643> 568 132<97 418 97 685>
VStem: 6 679
LayerCount: 2
Fore
SplineSet
175 924 m 1
 346 865 l 1
 517 924 l 1
 543 838 l 1
 346 739 l 1
 149 838 l 1
 175 924 l 1
643 0 m 1
 6 0 l 1
 418 568 l 1
 97 568 l 1
 97 700 l 1
 685 700 l 1
 274 132 l 1
 643 132 l 1
 643 0 l 1
EndSplineSet
EndChar

StartChar: zcaron
Encoding: 382 382 8
Width: 539
Flags: MW
HStem: 0 127<253 488 253 488> 373 133<57 286 57 489>
VStem: 53 436<0 506 93 506>
LayerCount: 2
Fore
SplineSet
112 719 m 1
 283 660 l 1
 454 719 l 1
 480 633 l 1
 283 534 l 1
 86 633 l 1
 112 719 l 1
488 127 m 1
 488 0 l 1
 53 0 l 1
 53 93 l 1
 286 373 l 1
 57 373 l 1
 57 506 l 1
 489 506 l 1
 489 412 l 1
 480 402 l 1
 253 127 l 1
 488 127 l 1
EndSplineSet
EndChar

StartChar: florin
Encoding: 402 402 190
Width: 600
Flags: MW
HStem: 414 132<84 155 46 191 336 442 84 301> 634 132<390.5 410>
VStem: 19 513
LayerCount: 2
Fore
SplineSet
532 721 m 1
 488 595 l 1
 449 628 422 634 398 634 c 0
 383 634 358 629 348 588 c 1
 336 546 l 1
 480 546 l 1
 442 414 l 1
 301 414 l 1
 164 -96 l 1
 19 -96 l 1
 155 414 l 1
 46 414 l 1
 84 546 l 1
 191 546 l 1
 214 632 l 2
 241 734 321 766 388 766 c 0
 446 766 508 736 532 721 c 1
EndSplineSet
EndChar

StartChar: circumflex
Encoding: 710 710 237
Width: 600
Flags: MW
HStem: 545 185<132 283 283 434>
VStem: 106 354<631 631>
LayerCount: 2
Fore
SplineSet
283 604 m 1
 132 545 l 1
 106 631 l 1
 283 730 l 1
 460 631 l 1
 434 545 l 1
 283 604 l 1
EndSplineSet
EndChar

StartChar: caron
Encoding: 711 711 235
Width: 600
Flags: MW
HStem: 534 185<112 283>
VStem: 86 394<633 633>
LayerCount: 2
Fore
SplineSet
112 719 m 1
 283 660 l 1
 454 719 l 1
 480 633 l 1
 283 534 l 1
 86 633 l 1
 112 719 l 1
EndSplineSet
EndChar

StartChar: breve
Encoding: 728 728 234
Width: 600
Flags: MW
HStem: 566 154<237.5 260 336 355.5>
VStem: 336 106.05
LayerCount: 2
Fore
SplineSet
336 720 m 1
 440 720 l 1
 452 657 413 566 298 566 c 0
 177 566 144 663 155 720 c 1
 260 720 l 1
 260 682 275 667 298 667 c 0
 321 667 336 682 336 720 c 1
EndSplineSet
EndChar

StartChar: dotaccent
Encoding: 729 729 239
Width: 203
Flags: MW
HStem: 561 138<82.5 121>
VStem: 30 143<611.5 648>
LayerCount: 2
Fore
SplineSet
30 630 m 0
 30 666 63 699 102 699 c 0
 140 699 173 666 173 630 c 0
 173 593 140 561 102 561 c 0
 63 561 30 593 30 630 c 0
EndSplineSet
EndChar

StartChar: ring
Encoding: 730 730 244
Width: 600
Flags: MW
HStem: 480 82<287 312.5 287 337.5> 663 82<287 312.5>
VStem: 165 88<598.5 627 598.5 649.5> 347 88<598.5 627>
LayerCount: 2
Fore
SplineSet
435 613 m 0
 435 540 375 480 300 480 c 0
 225 480 165 540 165 613 c 0
 165 686 225 745 300 745 c 0
 375 745 435 686 435 613 c 0
347 613 m 0
 347 641 325 663 300 663 c 0
 274 663 253 641 253 613 c 0
 253 584 274 562 300 562 c 0
 325 562 347 584 347 613 c 0
EndSplineSet
EndChar

StartChar: ogonek
Encoding: 731 731 243
Width: 600
Flags: MW
HStem: -226.72 289.42
VStem: 128 154<-139.5 -120 -44 -21.5>
LayerCount: 2
Fore
SplineSet
282 61 m 1
 282 -44 l 1
 244 -44 229 -60 229 -82 c 0
 229 -105 244 -120 282 -120 c 1
 282 -225 l 1
 220 -236 128 -197 128 -82 c 0
 128 39 225 71 282 61 c 1
EndSplineSet
EndChar

StartChar: tilde
Encoding: 732 732 245
Width: 600
Flags: MW
HStem: 556 85.36
VStem: 154.81 83.14 373.62 90.73
LayerCount: 2
Fore
SplineSet
366 693 m 1
 457 693 l 1
 486 606 424 556 370 556 c 0
 308 556 282 604 253 594 c 0
 239 589 235 566 240 550 c 1
 157 574 l 1
 147 620 170 687 239 687 c 0
 295 687 341 626 367 645 c 0
 381 656 371 679 366 693 c 1
EndSplineSet
EndChar

StartChar: hungarumlaut
Encoding: 733 733 241
Width: 600
Flags: MW
HStem: 577 187<206 239 146 312 206 326 386 419>
VStem: 146 347<577 764>
LayerCount: 2
Fore
SplineSet
312 764 m 1
 239 577 l 1
 146 577 l 1
 206 764 l 1
 312 764 l 1
493 764 m 1
 419 577 l 1
 326 577 l 1
 386 764 l 1
 493 764 l 1
EndSplineSet
EndChar

StartChar: Delta
Encoding: 916 916 132
Width: 600
Flags: MW
HStem: 4 132<215 429 215 636>
VStem: 7 629<4 4>
LayerCount: 2
Fore
SplineSet
322 762 m 1
 636 4 l 1
 7 4 l 1
 322 762 l 1
322 393 m 1
 215 136 l 1
 429 136 l 1
 322 393 l 1
EndSplineSet
EndChar

StartChar: Omega
Encoding: 937 937 133
Width: 835
Flags: MW
HStem: -1 132<31 136 31 313 31 136 700 804> 537 132<363.5 472.5>
VStem: 31 282<-1 131 -1 131> 69 143<288 377.5 281.5 411.5> 522 282<-1 131 -1 131> 623 143<288.5 377.5>
LayerCount: 2
Fore
SplineSet
522 -1 m 1xd8
 522 131 l 1
 573 163 623 238 623 323 c 0
 623 432 527 537 418 537 c 0
 309 537 212 432 212 323 c 0xd4
 212 240 262 164 313 131 c 1
 313 -1 l 1
 31 -1 l 1
 31 131 l 1xe4
 136 131 l 1
 95 187 69 253 69 323 c 0
 69 500 223 669 418 669 c 0
 612 669 766 500 766 323 c 0
 766 254 740 187 700 131 c 1xd4
 804 131 l 1
 804 -1 l 1
 522 -1 l 1xd8
EndSplineSet
EndChar

StartChar: mu
Encoding: 956 956 134
Width: 600
Flags: MW
HStem: -27 133<281.5 314.5 258.5 320> -24.04 132.47
VStem: 80 142<-237 -17 198 247 247 474> 350 143<175 474>
LayerCount: 2
Fore
SplineSet
493 474 m 1x70
 493 153 l 2
 493 121 504 89 562 122 c 1
 562 -21 l 1x70
 494 -31 448 -16 416 9 c 1
 385 -13 345 -27 295 -27 c 0
 268 -27 243 -23 222 -17 c 1
 222 -237 l 1
 80 -237 l 1
 80 474 l 1
 222 474 l 1
 222 247 l 2
 222 149 222 106 295 106 c 0
 334 106 351 130 350 175 c 1xb0
 350 474 l 1
 493 474 l 1x70
EndSplineSet
EndChar

StartChar: pi
Encoding: 960 960 135
Width: 600
Flags: MW
HStem: -11.94 132.37 352 132<6 88 6 594 231 350 231 231 493 594 493 493>
VStem: 88 143<-12 352 -12 352> 350 143<165 352>
LayerCount: 2
Fore
SplineSet
493 352 m 1
 493 165 l 2
 493 133 505 101 562 134 c 1
 562 -9 l 1
 375 -36 350 123 350 165 c 2
 350 352 l 1
 231 352 l 1
 231 -12 l 1
 88 -12 l 1
 88 352 l 1
 6 352 l 1
 6 484 l 1
 594 484 l 1
 594 352 l 1
 493 352 l 1
EndSplineSet
EndChar

StartChar: endash
Encoding: 8211 8211 178
Width: 600
Flags: MW
HStem: 249 132<94 522 94 522>
VStem: 94 428<249 381 249 381>
LayerCount: 2
Fore
SplineSet
94 381 m 1
 522 381 l 1
 522 249 l 1
 94 249 l 1
 94 381 l 1
EndSplineSet
EndChar

StartChar: emdash
Encoding: 8212 8212 177
Width: 906
Flags: MW
HStem: 249 132<30 875 30 875>
VStem: 30 845<249 381 249 381>
LayerCount: 2
Fore
SplineSet
30 381 m 1
 875 381 l 1
 875 249 l 1
 30 249 l 1
 30 381 l 1
EndSplineSet
EndChar

StartChar: quoteleft
Encoding: 8216 8216 187
Width: 298
Flags: MW
HStem: 517 242<109 109>
VStem: 60 112.5
LayerCount: 2
Fore
SplineSet
109 517 m 1
 60 638 l 1
 60 759 l 1
 177 759 l 1
 168 652 l 1
 193 560 l 1
 109 517 l 1
EndSplineSet
EndChar

StartChar: quoteright
Encoding: 8217 8217 188
Width: 272
Flags: MW
HStem: 517 242<125 125>
VStem: 41 134<560 759>
LayerCount: 2
Fore
SplineSet
175 638 m 1
 175 759 l 1
 58 759 l 1
 67 652 l 1
 41 560 l 1
 125 517 l 1
 175 638 l 1
EndSplineSet
EndChar

StartChar: quotesinglbase
Encoding: 8218 8218 189
Width: 333
Flags: MW
HStem: -165 281<138 138>
VStem: 90 123
LayerCount: 2
Fore
SplineSet
213 116 m 1
 213 -17 l 1
 138 -165 l 1
 36 -119 l 1
 94 12 l 1
 86 116 l 1
 213 116 l 1
EndSplineSet
EndChar

StartChar: quotedblleft
Encoding: 8220 8220 185
Width: 478
Flags: MW
HStem: 517 242<104 104 310 310>
VStem: 54 112.5 260 112.5
LayerCount: 2
Fore
SplineSet
104 517 m 1
 54 638 l 1
 54 759 l 1
 171 759 l 1
 162 652 l 1
 188 560 l 1
 104 517 l 1
310 517 m 1
 260 638 l 1
 260 759 l 1
 377 759 l 1
 368 652 l 1
 394 560 l 1
 310 517 l 1
EndSplineSet
EndChar

StartChar: quotedblright
Encoding: 8221 8221 186
Width: 478
Flags: MW
HStem: 517 242<125 125 330 330>
VStem: 175 92.5
LayerCount: 2
Fore
SplineSet
125 517 m 1
 175 638 l 1
 175 759 l 1
 58 759 l 1
 67 652 l 1
 41 560 l 1
 125 517 l 1
330 517 m 1
 380 638 l 1
 380 759 l 1
 263 759 l 1
 272 652 l 1
 246 560 l 1
 330 517 l 1
EndSplineSet
EndChar

StartChar: quotedblbase
Encoding: 8222 8222 184
Width: 313
Flags: MW
HStem: -165 281<138 138>
VStem: 90 123
LayerCount: 2
Fore
SplineSet
213 116 m 1
 213 -17 l 1
 138 -165 l 1
 36 -119 l 1
 94 12 l 1
 86 116 l 1
 213 116 l 1
EndSplineSet
EndChar

StartChar: dagger
Encoding: 8224 8224 224
Width: 600
Flags: MW
HStem: 413 132<70 205 70 205 348 484>
VStem: 205 143<-129 413 545 730>
LayerCount: 2
Fore
SplineSet
348 -129 m 1
 205 -129 l 1
 205 413 l 1
 70 413 l 1
 70 545 l 1
 205 545 l 1
 205 730 l 1
 348 730 l 1
 348 545 l 1
 484 545 l 1
 484 413 l 1
 348 413 l 1
 348 -129 l 1
EndSplineSet
EndChar

StartChar: daggerdbl
Encoding: 8225 8225 225
Width: 600
Flags: MW
HStem: 60 132<70 205 70 205 348 484> 413 132<70 205 70 205 348 484>
VStem: 205 143<-129 60 -129 60 192 413 545 730>
LayerCount: 2
Fore
SplineSet
484 192 m 1
 484 60 l 1
 348 60 l 1
 348 -129 l 1
 205 -129 l 1
 205 60 l 1
 70 60 l 1
 70 192 l 1
 205 192 l 1
 205 413 l 1
 70 413 l 1
 70 545 l 1
 205 545 l 1
 205 730 l 1
 348 730 l 1
 348 545 l 1
 484 545 l 1
 484 413 l 1
 348 413 l 1
 348 192 l 1
 484 192 l 1
EndSplineSet
EndChar

StartChar: ellipsis
Encoding: 8230 8230 160
Width: 933
Flags: MW
HStem: -31 187<160 213.5 446 500 720 774>
VStem: 90 193<37 88.5> 377 192<37 88.5> 651 192<37 88.5>
LayerCount: 2
Fore
SplineSet
187 -31 m 0
 133 -31 90 11 90 63 c 0
 90 114 133 156 187 156 c 0
 240 156 283 114 283 63 c 0
 283 11 240 -31 187 -31 c 0
473 -31 m 0
 419 -31 377 11 377 63 c 0
 377 114 419 156 473 156 c 0
 527 156 569 114 569 63 c 0
 569 11 527 -31 473 -31 c 0
747 -31 m 0
 693 -31 651 11 651 63 c 0
 651 114 693 156 747 156 c 0
 801 156 843 114 843 63 c 0
 843 11 801 -31 747 -31 c 0
EndSplineSet
EndChar

StartChar: perthousand
Encoding: 8240 8240 212
Width: 1144
Flags: MW
HStem: -3 95<583 593 583 630.5 903 913> 293 96<581.5 594.5 902 914.5> 318 96<177.5 187 177.5 224.5> 615 95<176 188.5>
VStem: 31 130<469 562.5 469 578> 204 130<469 562.5> 437 130<147 240.5 147 256> 610 130<147 240.5> 757 130<147 240.5 147 256> 930 130<147 240.5>
LayerCount: 2
Fore
SplineSet
182 318 m 0xbf
 97 318 31 392 31 516 c 0
 31 640 98 710 182 710 c 0
 267 710 334 640 334 516 c 0
 334 392 267 318 182 318 c 0xbf
707 710 m 1
 233 0 l 1
 65 0 l 1
 540 710 l 1
 707 710 l 1
182 414 m 0
 192 414 204 422 204 516 c 0
 204 609 195 615 182 615 c 0
 170 615 161 609 161 516 c 0
 161 422 173 414 182 414 c 0
588 -3 m 0
 503 -3 437 70 437 194 c 0
 437 318 504 389 588 389 c 0x43
 672 389 740 318 740 194 c 0
 740 70 673 -3 588 -3 c 0
908 -3 m 0xc0c0
 823 -3 757 70 757 194 c 0
 757 318 824 389 908 389 c 0
 993 389 1060 318 1060 194 c 0
 1060 70 993 -3 908 -3 c 0xc0c0
588 92 m 0xc3
 598 92 610 100 610 194 c 0
 610 287 601 293 588 293 c 0
 575 293 567 287 567 194 c 0
 567 100 578 92 588 92 c 0xc3
908 92 m 0xc0c0
 918 92 930 100 930 194 c 0
 930 287 921 293 908 293 c 0
 896 293 887 287 887 194 c 0
 887 100 898 92 908 92 c 0xc0c0
EndSplineSet
EndChar

StartChar: guilsinglleft
Encoding: 8249 8249 182
Width: 600
Flags: MW
HStem: 37 473<381 381>
VStem: 142 344<124 273>
LayerCount: 2
Fore
SplineSet
381 510 m 1
 486 422 l 1
 350 273 l 1
 486 124 l 1
 381 37 l 1
 142 273 l 1
 381 510 l 1
EndSplineSet
EndChar

StartChar: guilsinglright
Encoding: 8250 8250 183
Width: 600
Flags: MW
HStem: 37 473<247 247>
VStem: 142 344<124 273 273 422>
LayerCount: 2
Fore
SplineSet
142 422 m 1
 278 273 l 1
 142 124 l 1
 247 37 l 1
 486 273 l 1
 247 510 l 1
 142 422 l 1
EndSplineSet
EndChar

StartChar: fraction
Encoding: 8260 8260 148
Width: 673
Flags: MW
HStem: -23 906<118 555>
VStem: 0 673
LayerCount: 2
Fore
SplineSet
673 808 m 1
 118 -23 l 1
 0 52 l 1
 555 883 l 1
 673 808 l 1
EndSplineSet
EndChar

StartChar: foursuperior
Encoding: 8308 8308 155
Width: 412
Flags: MW
HStem: 561 96<171 214>
VStem: 219 120<658 734 734 734>
LayerCount: 2
Fore
SplineSet
214 484 m 1
 214 561 l 1
 65 561 l 1
 65 658 l 1
 231 915 l 1
 339 915 l 1
 339 658 l 1
 382 658 l 1
 382 561 l 1
 339 561 l 1
 339 484 l 1
 214 484 l 1
219 657 m 1
 219 734 l 1
 171 657 l 1
 219 657 l 1
EndSplineSet
EndChar

StartChar: Euro
Encoding: 8364 8364 230
Width: 747
Flags: MW
HStem: -5 131<425.5 477.5 425.5 498> 229 87<53 143 53 160 53 143 311 311 311 531> 380 87<53 143 53 160 310 531> 572 132<425 477.5>
VStem: 143 143<316 316 316 380>
LayerCount: 2
Fore
SplineSet
582 199 m 1
 680 105 l 1
 632 42 542 -5 454 -5 c 0
 317 -5 203 94 160 229 c 1
 53 229 l 1
 53 316 l 1
 143 316 l 1
 142 327 141 338 141 349 c 0
 141 359 142 370 143 380 c 1
 53 380 l 1
 53 467 l 1
 160 467 l 1
 202 604 317 704 454 704 c 0
 542 704 632 656 680 593 c 1
 581 499 l 1
 535 551 501 572 454 572 c 0
 396 572 341 531 310 467 c 1
 531 467 l 1
 531 380 l 1
 286 380 l 1
 285 370 284 360 284 349 c 0
 284 338 285 327 286 316 c 1
 531 316 l 1
 531 229 l 1
 311 229 l 1
 342 166 397 126 454 126 c 0
 501 126 535 147 582 199 c 1
EndSplineSet
EndChar

StartChar: trademark
Encoding: 8482 8482 231
Width: 902
Flags: MW
HStem: 643 132<85 172 85 403 315 403 315 315>
VStem: 172 143<341 643 341 643> 464 128<341 515 341 775> 744 128<341 515 515 515>
LayerCount: 2
Fore
SplineSet
315 643 m 1
 315 341 l 1
 172 341 l 1
 172 643 l 1
 85 643 l 1
 85 775 l 1
 403 775 l 1
 403 643 l 1
 315 643 l 1
744 341 m 1
 744 515 l 1
 707 393 l 1
 632 393 l 1
 592 515 l 1
 592 341 l 1
 464 341 l 1
 464 775 l 1
 624 775 l 1
 668 601 l 1
 712 775 l 1
 872 775 l 1
 872 341 l 1
 744 341 l 1
EndSplineSet
EndChar

StartChar: partialdiff
Encoding: 8706 8706 210
Width: 600
Flags: MW
HStem: -23 132<251.5 299 251.5 320> 435 132<268 290.5 248 315>
VStem: 19 142<224.5 297 224.5 310> 405 143<247.5 319.5>
LayerCount: 2
Fore
SplineSet
47 692 m 1
 47 825 l 1
 377 851 548 576 548 272 c 0
 548 199 520 122 477 71 c 1
 435 19 357 -23 283 -23 c 0
 133 -23 19 114 19 272 c 0
 19 348 50 428 95 480 c 0
 137 528 213 567 283 567 c 0
 298 567 312 566 326 563 c 1
 263 655 167 707 47 692 c 1
283 109 m 0
 315 109 341 123 367 154 c 0
 391 184 405 223 405 272 c 0
 405 367 347 435 283 435 c 0
 253 435 228 422 203 393 c 0
 178 365 161 322 161 272 c 0
 161 177 220 109 283 109 c 0
EndSplineSet
EndChar

StartChar: product
Encoding: 8719 8719 215
Width: 834
Flags: MW
HStem: 593 132<49 122 49 777 265 561 265 265 704 704 704 777>
VStem: 122 143<1 593 1 593> 561 143<1 593>
LayerCount: 2
Fore
SplineSet
704 1 m 1
 561 1 l 1
 561 593 l 1
 265 593 l 1
 265 1 l 1
 122 1 l 1
 122 593 l 1
 49 593 l 1
 49 725 l 1
 777 725 l 1
 777 593 l 1
 704 593 l 1
 704 1 l 1
EndSplineSet
EndChar

StartChar: summation
Encoding: 8721 8721 217
Width: 854
Flags: MW
HStem: -29 132<387 756 387 756> 592 132<387 756 387 387>
VStem: 94 662<-29 103 -29 724>
LayerCount: 2
Fore
SplineSet
575 371 m 1
 575 324 l 1
 387 103 l 1
 756 103 l 1
 756 -29 l 1
 94 -29 l 1
 412 349 l 1
 94 724 l 1
 756 724 l 1
 756 592 l 1
 387 592 l 1
 575 371 l 1
EndSplineSet
EndChar

StartChar: minus
Encoding: 8722 8722 207
Width: 600
Flags: MW
HStem: 241 132<25 587 25 587>
VStem: 25 562<241 373 241 373>
LayerCount: 2
Fore
SplineSet
587 241 m 1
 25 241 l 1
 25 373 l 1
 587 373 l 1
 587 241 l 1
EndSplineSet
EndChar

StartChar: radical
Encoding: 8730 8730 216
Width: 651
Flags: MW
HStem: 384 132<59 260 59 156>
VStem: 59 579<384 738 516 738>
LayerCount: 2
Fore
SplineSet
59 384 m 1
 59 516 l 1
 260 516 l 1
 349 260 l 1
 489 738 l 1
 638 738 l 1
 363 -197 l 1
 360 -197 l 1
 156 384 l 1
 59 384 l 1
EndSplineSet
EndChar

StartChar: infinity
Encoding: 8734 8734 202
Width: 732
Flags: MW
HStem: 41 132<175 195 175 219.5 543.5 564> 311 132<175 195 543.5 562.5>
VStem: 15 142<222.5 261 222.5 273.5> 582 143<222.5 267>
LayerCount: 2
Fore
SplineSet
557 443 m 0
 667 443 725 352 725 242 c 0
 725 179 697 41 557 41 c 0
 482 41 415 94 369 140 c 1
 322 92 257 41 182 41 c 0
 42 41 15 179 15 242 c 0
 15 305 42 443 182 443 c 0
 258 443 322 392 369 344 c 1
 416 391 481 443 557 443 c 0
182 173 m 0
 208 173 242 205 276 242 c 1
 241 280 208 311 182 311 c 0
 168 311 157 280 157 242 c 0
 157 203 168 173 182 173 c 0
557 173 m 0
 571 173 582 203 582 242 c 0
 582 292 568 311 557 311 c 0
 530 311 497 279 462 242 c 1
 493 208 530 173 557 173 c 0
EndSplineSet
EndChar

StartChar: integral
Encoding: 8747 8747 203
Width: 600
Flags: MW
HStem: -144 139<144.5 158.5 144.5 190.5> 641 130<446 458>
VStem: 13 548
LayerCount: 2
Fore
SplineSet
561 739 m 1
 500 620 l 1
 479 636 464 641 452 641 c 0
 440 641 425 632 419 599 c 0
 400 488 311 9 302 -45 c 1
 290 -108 225 -144 156 -144 c 0
 111 -144 50 -123 13 -83 c 1
 90 25 l 1
 131 -1 137 -5 152 -5 c 0
 165 -5 169 9 170 15 c 0
 182 75 259 509 279 622 c 0
 300 739 377 771 440 771 c 0
 485 771 537 753 561 739 c 1
EndSplineSet
EndChar

StartChar: approxequal
Encoding: 8776 8776 196
Width: 600
Flags: MW
HStem: 152 119<369 409.5 369 425.5> 214 117<234 268.5> 345 119<369 409.5 369 425.5> 407 118<234 268.5>
VStem: 113.49 104.66
LayerCount: 2
Fore
SplineSet
432 509 m 1xa8
 527 509 l 1
 550 382 459 345 392 345 c 0xa8
 306 345 291 407 246 407 c 0
 222 407 213 381 221 353 c 1
 118 353 l 1
 96 446 156 525 248 525 c 0x98
 322 525 343 464 395 464 c 0
 424 464 437 483 432 509 c 1xa8
432 316 m 1
 527 316 l 1
 550 189 459 152 392 152 c 0xa8
 306 152 291 214 246 214 c 0
 222 214 213 188 221 160 c 1
 118 160 l 1
 96 253 156 331 248 331 c 0x68
 322 331 343 271 395 271 c 0
 424 271 437 290 432 316 c 1
EndSplineSet
EndChar

StartChar: notequal
Encoding: 8800 8800 209
Width: 600
Flags: MW
HStem: 108 132<71 185 71 225 346 537 71 307> 340 132<71 255 71 294 71 376 416 537>
VStem: 71 466<108 240 108 240 340 472 108 472>
LayerCount: 2
Fore
SplineSet
537 240 m 1
 537 108 l 1
 307 108 l 1
 236 -126 l 1
 125 -92 l 1
 185 108 l 1
 71 108 l 1
 71 240 l 1
 225 240 l 1
 255 340 l 1
 71 340 l 1
 71 472 l 1
 294 472 l 1
 374 738 l 1
 485 702 l 1
 416 472 l 1
 537 472 l 1
 537 340 l 1
 376 340 l 1
 346 240 l 1
 537 240 l 1
EndSplineSet
EndChar

StartChar: lessequal
Encoding: 8804 8804 205
Width: 600
Flags: MW
HStem: 108 28<506 506 506 585>
VStem: 46 539<-10 108 -10 108>
LayerCount: 2
Fore
SplineSet
507 640 m 1
 137 450 l 1
 137 326 l 1
 506 136 l 1
 560 254 l 1
 279 388 l 1
 561 522 l 1
 507 640 l 1
46 108 m 1
 46 -10 l 1
 585 -10 l 1
 585 108 l 1
 46 108 l 1
EndSplineSet
EndChar

StartChar: greaterequal
Encoding: 8805 8805 201
Width: 631
Flags: MW
HStem: -10 118<54 593 54 593>
VStem: 54 539<-10 108 -10 108>
LayerCount: 2
Fore
SplineSet
78 522 m 1
 132 640 l 1
 502 450 l 1
 502 326 l 1
 133 136 l 1
 79 254 l 1
 360 388 l 1
 78 522 l 1
54 108 m 1
 593 108 l 1
 593 -10 l 1
 54 -10 l 1
 54 108 l 1
EndSplineSet
EndChar

StartChar: lozenge
Encoding: 9674 9674 232
Width: 696
Flags: MW
HStem: -66 672<348 348>
VStem: 12 672<270 270>
LayerCount: 2
Fore
SplineSet
12 270 m 1
 348 606 l 1
 684 270 l 1
 348 -66 l 1
 12 270 l 1
490 270 m 1
 348 411 l 1
 206 270 l 1
 348 128 l 1
 490 270 l 1
EndSplineSet
EndChar

StartChar: fi
Encoding: 64257 64257 130
Width: 613
Flags: MW
HStem: 380 127<-2 79 -2 79 216 385> 559 149<455 498.5 455 499> 591 120<240 245 167 262>
VStem: 79 137<0 380 0 380 507 542> 385 143<1 380 380 380> 400 153<634 654 634 654>
LayerCount: 2
Fore
SplineSet
79 507 m 1xb8
 79 542 l 2
 79 602 103 711 231 711 c 0
 259 711 314 704 373 658 c 1
 306 551 l 1
 293 571 276 591 248 591 c 0
 232 591 216 579 216 542 c 2
 216 507 l 1
 528 507 l 1
 528 1 l 1
 385 1 l 1
 385 380 l 1
 216 380 l 1
 216 0 l 1
 79 0 l 1
 79 380 l 1
 -2 380 l 1
 -2 507 l 1
 79 507 l 1xb8
477 708 m 0xd8
 520 708 553 674 553 634 c 0xd4
 554 592 521 559 477 559 c 0
 433 559 400 593 400 634 c 0
 400 674 433 708 477 708 c 0xd8
EndSplineSet
EndChar

StartChar: fl
Encoding: 64258 64258 131
Width: 641
Flags: MW
HStem: 380 127<15 96 15 96 233 355> 591 120<257 262 184 279>
VStem: 96 137<0 380 0 380 507 542> 440 137<0 700>
LayerCount: 2
Fore
SplineSet
233 380 m 1
 233 0 l 1
 96 0 l 1
 96 380 l 1
 15 380 l 1
 15 507 l 1
 96 507 l 1
 96 542 l 2
 96 602 120 711 248 711 c 0
 276 711 331 704 390 658 c 1
 323 551 l 1
 310 571 293 591 265 591 c 0
 249 591 233 579 233 542 c 2
 233 507 l 1
 355 507 l 1
 355 380 l 1
 233 380 l 1
577 0 m 1
 440 0 l 1
 440 700 l 1
 577 700 l 1
 577 0 l 1
EndSplineSet
EndChar
